<svg data-name="Layer 1" xmlns="http://www.w3.org/2000/svg" viewBox="0 0 589.244 559.663"><path d="M409.467 274.932l-4.121-7.144-138.84-45.425-3.938 4.579-5.953 1.374-123.454 288.3 1.649 8.792L432 399.943l2.473-5.038-20.7-115.119-4.305-4.854z" fill="#787878"/><path d="M134.81 525.411l127.666-298.285L0 141.4zM359.921 0l-97.444 227.034 146.9 47.9.732-1.832L360.837 2.106z" fill="#c1c1c0"/><path d="M409.467 274.932L432 399.943l10.348-.275 140.672-60.994 6.227-5.312-7.326-6.228-165.585-55.682z" fill="#606161"/><path d="M432 399.943l28.757 159.72 128.4-226.3L432 399.943zM359.921 0l49.455 274.84 179.777 58.522z" fill="#969696"/></svg>