<?xml version="1.0" encoding="UTF-8"?>
<svg version="1.1" xmlns="http://www.w3.org/2000/svg" width="1024" height="820">
<path d="M0 0 C0.93864899 -0.00100708 1.87729797 -0.00201416 2.84439087 -0.00305176 C19.90480684 0.00923505 36.5800203 0.97339551 53.5 3.25 C54.55590332 3.38921875 55.61180664 3.5284375 56.69970703 3.671875 C103.73492368 10.10302347 151.83447682 27.03743904 191.87890625 52.60546875 C194.15106938 54.03107334 196.42770032 55.27873387 198.8125 56.5 C204.13505913 59.38264293 208.83071447 63.14957609 213.62939453 66.81323242 C217.07915566 69.44534746 220.51658012 71.99188152 224.1875 74.3125 C231.27113894 78.88877738 238.98468645 84.86689236 244.5 91.25 C244.5 91.91 244.5 92.57 244.5 93.25 C241.01912168 92.68081651 238.33541405 91.81665011 235.26171875 90.09765625 C234.45444336 89.65599121 233.64716797 89.21432617 232.81542969 88.75927734 C231.51460449 88.04312256 231.51460449 88.04312256 230.1875 87.3125 C218.61364392 81.11207517 206.72877011 76.00939936 194.5 71.25 C193.48921387 70.85538574 192.47842773 70.46077148 191.43701172 70.05419922 C170.78892383 62.08631947 149.7701207 56.39814025 128 52.4375 C126.92838623 52.2425293 125.85677246 52.04755859 124.75268555 51.84667969 C106.97809188 48.79152406 89.45297539 47.87271607 71.4375 47.9375 C70.35706421 47.93965515 69.27662842 47.9418103 68.16345215 47.94403076 C52.09325112 47.99543306 36.35275144 48.37346192 20.5 51.25 C19.33710449 51.45931152 18.17420898 51.66862305 16.97607422 51.88427734 C-19.24055054 58.5833336 -52.52582378 70.63383106 -85.28637695 87.24707031 C-87.5 88.25 -87.5 88.25 -89.5 88.25 C-89.5 88.91 -89.5 89.57 -89.5 90.25 C-90.3206897 90.70101074 -90.3206897 90.70101074 -91.15795898 91.16113281 C-101.95285176 97.12610854 -112.41017551 103.26146004 -122.34350586 110.59082031 C-127.32119278 114.25 -127.32119278 114.25 -129.5 114.25 C-129.5 114.91 -129.5 115.57 -129.5 116.25 C-131.59060916 118.012257 -133.69253381 119.67096305 -135.875 121.3125 C-143.90380172 127.47941781 -151.35998865 134.06841653 -158.5 141.25 C-159.6737988 142.41344724 -160.84833176 143.57615406 -162.0234375 144.73828125 C-163.30733836 146.0129738 -164.59119159 147.28771434 -165.875 148.5625 C-166.50921875 149.18833984 -167.1434375 149.81417969 -167.796875 150.45898438 C-174.97617479 157.60165509 -181.37822119 165.15421895 -187.375 173.3125 C-187.98142334 174.13596924 -188.58784668 174.95943848 -189.21264648 175.80786133 C-194.46400241 183.03030662 -199.04981456 190.51874563 -203.5 198.25 C-205.14347911 200.93228195 -206.81814015 203.59157637 -208.5 206.25 C-214.12189678 204.08875046 -219.35712005 201.28935007 -224.6875 198.5 C-225.67814453 197.98695313 -226.66878906 197.47390625 -227.68945312 196.9453125 C-232.27095857 194.55391687 -236.78603648 192.11754781 -241.19140625 189.4140625 C-248.35098553 185.05202913 -255.82532301 181.26064574 -263.25 177.375 C-290.0702853 163.3327493 -290.0702853 163.3327493 -300.5 156.25 C-300.068891 151.26413069 -297.45269876 148.21749073 -294.375 144.5 C-293.36951526 143.25673391 -292.36430685 142.01324428 -291.359375 140.76953125 C-290.86888672 140.16834473 -290.37839844 139.5671582 -289.87304688 138.94775391 C-288.07824999 136.72851181 -286.35144167 134.46013893 -284.625 132.1875 C-282.11112374 128.95622038 -279.47017058 126.07873388 -276.5 123.25 C-270.21972732 117.10983377 -270.21972732 117.10983377 -264.375 110.5625 C-247.89635362 91.3438445 -226.45470321 75.68402877 -205.5 61.75 C-204.92808929 61.36927338 -204.35617859 60.98854675 -203.76693726 60.59628296 C-194.39578507 54.37335605 -185.00208681 48.29854977 -174.875 43.375 C-173.48157189 42.690509 -172.08834835 42.00560144 -170.6953125 41.3203125 C-169.99696289 40.97774414 -169.29861328 40.63517578 -168.57910156 40.28222656 C-166.5802046 39.28981976 -164.59708412 38.27189479 -162.6171875 37.2421875 C-123.81815257 17.15879154 -78.9810588 4.81265946 -35.5 1.25 C-34.47922363 1.16459961 -33.45844727 1.07919922 -32.40673828 0.99121094 C-21.60366761 0.17494642 -10.83008844 0.00813528 0 0 Z " fill="#05658C" transform="translate(516.5,52.75)"/>
<path d="M0 0 C3.56904758 1.18968253 3.69111564 1.76900985 5.3359375 4.98828125 C14.37563052 22.07188333 25.59958638 37.40014678 38.72265625 51.5390625 C40.75902154 53.73959446 42.73261853 55.97728703 44.6875 58.25 C50.36855158 64.74827942 56.45486807 70.27736349 63.1875 75.68359375 C65.82159992 77.85306771 68.31753885 80.11078459 70.8125 82.4375 C76.23792811 87.36737719 82.11013585 91.54516267 88.13037109 95.69970703 C89.98267962 96.98795399 91.814681 98.30119374 93.64453125 99.62109375 C109.38659025 110.86366216 126.36319195 120.15111434 143.99682617 128.06396484 C146.28292165 129.13220251 148.51533908 130.28840866 150.7578125 131.4453125 C156.21483609 134.18807713 161.81291346 136.32919665 167.5625 138.375 C168.64313721 138.76075195 169.72377441 139.14650391 170.8371582 139.54394531 C182.40522513 143.59892152 194.12794297 146.96174548 206 150 C206.94472168 150.24234375 207.88944336 150.4846875 208.86279297 150.734375 C232.35222993 156.65504526 256.17266481 159.22108467 280.375 159.1875 C281.1161203 159.18722809 281.8572406 159.18695618 282.62081909 159.18667603 C301.33599184 159.15527346 319.65075077 157.75665126 338 154 C339.0115918 153.79890625 340.02318359 153.5978125 341.06542969 153.390625 C372.75530453 147.06184883 404.53490419 138.37395282 433.15673828 122.98681641 C436.66315241 121.10960768 440.20572571 119.3043651 443.75 117.5 C444.75317261 116.97369995 444.75317261 116.97369995 445.77661133 116.43676758 C449.19736244 114.68959791 451.07059484 114 455 114 C453.64509182 118.06472455 450.86343173 119.69708037 447.5625 122.1875 C446.37579701 123.09699762 445.18961229 124.0071718 444.00390625 124.91796875 C443.36864014 125.40265625 442.73337402 125.88734375 442.07885742 126.38671875 C439.76064974 128.18574592 437.48789777 130.03580234 435.2109375 131.88671875 C430.00089012 136.06516188 424.58740372 139.8769302 419.0625 143.625 C418.15048828 144.2540625 417.23847656 144.883125 416.29882812 145.53125 C410.90549757 149.20557555 405.4333917 152.49477028 399.66918945 155.55224609 C397.11952025 156.93517286 394.66103383 158.41101703 392.1953125 159.9375 C385.96693014 163.71138375 379.43477095 166.8545226 372.875 170 C372.23581635 170.30814636 371.59663269 170.61629272 370.93807983 170.93377686 C362.583385 174.95384728 354.22456417 178.74747366 345.45703125 181.7890625 C342.66903321 182.76564938 339.9620647 183.81888714 337.23046875 184.9375 C311.42273394 195.33440662 283.48995976 200.57072075 256 204 C255.09942871 204.11859375 254.19885742 204.2371875 253.27099609 204.359375 C224.922768 207.97623645 194.31984213 207.66703093 166 204 C164.98873047 203.87109375 163.97746094 203.7421875 162.93554688 203.609375 C107.47718772 196.30064677 55.51222006 177.16182094 8.375 147.0625 C7.32054687 146.39798828 6.26609375 145.73347656 5.1796875 145.04882812 C-1.57114323 140.74183154 -7.81648209 136.07882665 -14 131 C-15.13876322 130.1200883 -16.28255947 129.24661014 -17.43359375 128.3828125 C-23.78612585 123.60808746 -29.7555998 118.66167946 -35.5625 113.2265625 C-37.15833631 111.76882741 -38.80449781 110.36394392 -40.5 109.0234375 C-43.20295889 106.83573015 -45.56550514 104.484034 -48 102 C-49.26904449 100.75078433 -50.54004344 99.50355245 -51.8125 98.2578125 C-53.20843651 96.88031289 -54.60426755 95.50270638 -56 94.125 C-56.69867188 93.44308594 -57.39734375 92.76117187 -58.1171875 92.05859375 C-61.77591995 88.43437765 -64.96611584 84.84339623 -67.85522461 80.58251953 C-69.63526101 78.12182515 -71.8249311 76.11039549 -74 74 C-87.43637715 58.75365129 -87.43637715 58.75365129 -90 53 C-89.84863281 51.05908203 -89.84863281 51.05908203 -89 49 C-86.96899414 47.51123047 -86.96899414 47.51123047 -84.28515625 46.1171875 C-83.29821777 45.59503662 -82.3112793 45.07288574 -81.29443359 44.53491211 C-80.22789551 43.98714111 -79.16135742 43.43937012 -78.0625 42.875 C-75.84720923 41.70787934 -73.63236861 40.53990387 -71.41796875 39.37109375 C-70.32145996 38.7972998 -69.22495117 38.22350586 -68.09521484 37.63232422 C-63.98504455 35.46474269 -59.92643493 33.21240731 -55.875 30.9375 C-41.74895247 23.05673682 -27.55438126 15.30272318 -13.25 7.75 C-11.90071411 7.03275757 -11.90071411 7.03275757 -10.52416992 6.30102539 C-9.6963501 5.86653076 -8.86853027 5.43203613 -8.015625 4.984375 C-7.28633789 4.59991211 -6.55705078 4.21544922 -5.80566406 3.81933594 C-4 3 -4 3 -2 3 C-2 2.34 -2 1.68 -2 1 C-1.34 0.67 -0.68 0.34 0 0 Z " fill="#00AEEF" transform="translate(306,497)"/>
<path d="M0 0 C3.8701366 0.62560541 7.06276002 1.79187652 10.61328125 3.44140625 C11.69802734 3.94349609 12.78277344 4.44558594 13.90039062 4.96289062 C15.02638672 5.49076172 16.15238281 6.01863281 17.3125 6.5625 C18.39595703 7.06330078 19.47941406 7.56410156 20.59570312 8.08007812 C26.66860454 10.9046006 32.68390042 13.82559624 38.6640625 16.83984375 C44.52000887 19.79036992 50.41422739 22.64606522 56.34765625 25.4375 C57.14277115 25.81168564 57.93788605 26.18587128 58.75709534 26.57139587 C62.00735281 28.09902405 65.25877387 29.62413206 68.51196289 31.14550781 C69.31819092 31.52288086 70.12441895 31.90025391 70.95507812 32.2890625 C71.75642685 32.66350494 72.55777557 33.03794739 73.38340759 33.42373657 C74.97697075 34.17930749 76.5638861 34.94907117 78.14356995 35.73324585 C81.87299569 37.58233192 85.46838122 39.20353611 89.45483398 40.41650391 C93.69118903 41.85183718 97.32798796 43.26505342 100 47 C102.79219713 55.38149712 102.05096033 64.66293821 101.9375 73.375 C101.95751405 75.90696093 101.9840671 78.43887844 102.01708984 80.97070312 C102.08205414 87.18362494 102.06507281 93.39286154 102.01861572 99.60583496 C101.99182611 104.49032824 102.0307055 109.37352952 102.07421875 114.2578125 C102.13102104 121.84023751 102.10779479 129.41788036 102 137 C97.73618902 135.1204242 95.79669056 132.27381371 93.25 128.5 C92.35545611 127.22695754 91.45961248 125.95482743 90.5625 124.68359375 C89.03721944 122.50277901 87.54034648 120.31144644 86.0625 118.09765625 C80.74092686 110.65433519 74.32134946 107.50046117 66 104 C64.84113281 103.48050781 63.68226563 102.96101563 62.48828125 102.42578125 C53.9043322 98.74990026 53.9043322 98.74990026 45 100 C41.6344925 102.90791656 39.40837748 105.77486756 38 110 C37.23361021 122.40145089 37.23361021 122.40145089 41 134 C41.43699219 134.88171875 41.87398437 135.7634375 42.32421875 136.671875 C47.10191446 146.22102292 47.10191446 146.22102292 55 153 C54.42737173 157.48803166 53.26057444 161.05987568 51.33984375 165.1484375 C50.79263672 166.32019531 50.24542969 167.49195313 49.68164062 168.69921875 C49.1002672 169.92448238 48.51888698 171.1497428 47.9375 172.375 C47.38900391 173.54933594 46.84050781 174.72367188 46.27539062 175.93359375 C42.98275684 182.94617879 39.57397663 189.8929799 36.09301758 196.81376648 C33.60084691 201.77592552 31.16050876 206.76129687 28.74609375 211.76171875 C28.39165695 212.49517517 28.03722015 213.22863159 27.67204285 213.98431396 C26.22998345 216.97011841 24.78912744 219.9564913 23.35180664 222.94458008 C19.74873022 230.43063865 16.11793504 237.90179196 12.28515625 245.2734375 C11.76961182 246.26649902 11.25406738 247.25956055 10.72290039 248.28271484 C7.66390268 253.10723582 3.42450287 256.47034041 -1 260 C-2.31561581 261.16315192 -3.62851769 262.32938791 -4.9375 263.5 C-9.42111367 267.1600928 -12.90889736 267.3421286 -18.4921875 267.28515625 C-23.11758873 266.75921499 -25.83494048 264.32575738 -28.8125 260.9375 C-31.24683836 256.96568478 -31.30434725 253.56520872 -31 249 C-28.80389201 242.76864059 -25.27246457 237.77806981 -21.4375 232.4375 C-20.81633301 231.562146 -20.19516602 230.68679199 -19.55517578 229.78491211 C-18.30025366 228.01828831 -17.04247679 226.25368863 -15.78173828 224.49121094 C-14.17980683 222.25140434 -12.58595243 220.00619572 -10.99609375 217.7578125 C-7.44139537 212.74306866 -3.8823229 207.76946004 0 203 C-10.3777316 212.47677098 -17.86891633 224.60720229 -25.73388672 236.14941406 C-28.45349778 240.12447226 -31.22661366 244.06235933 -34 248 C-40.38275374 247.03985927 -43.89658601 243.76220137 -47.74609375 238.70703125 C-51.45008489 233.26207544 -53.98544529 228.76751585 -53 222 C-51.70880091 217.51187481 -49.87932928 213.26701713 -48 209 C-47.608125 208.10458496 -47.21625 207.20916992 -46.8125 206.28662109 C-45.46323428 203.241236 -44.08054772 200.21308927 -42.6875 197.1875 C-42.25010498 196.20910156 -41.81270996 195.23070312 -41.36206055 194.22265625 C-38.23018211 187.57272309 -34.52968796 182.83989227 -29 178 C-29.78375 178.495 -30.5675 178.99 -31.375 179.5 C-34 181 -34 181 -36 181 C-36.24927246 181.82000488 -36.49854492 182.64000977 -36.75537109 183.48486328 C-38.20070684 187.56684524 -40.00418735 191.36141525 -41.9140625 195.2421875 C-42.4758168 196.39474533 -42.4758168 196.39474533 -43.04891968 197.57058716 C-44.23746267 200.00711114 -45.43114455 202.44107535 -46.625 204.875 C-47.43523737 206.53368738 -48.24513681 208.19253987 -49.0546875 209.8515625 C-51.03255248 213.90296309 -53.01502793 217.95207708 -55 222 C-59.57934948 222 -61.68929271 220.94285092 -65 218 C-70.91421478 211.382006 -74.50712857 206.12831426 -74 197 C-73.67 196.01 -73.34 195.02 -73 194 C-74.03125 193.938125 -75.0625 193.87625 -76.125 193.8125 C-81.8622644 192.60952521 -84.7238087 189.91428695 -88 185 C-90.34925133 175.83791981 -89.94789443 167.38221541 -85.22265625 159.1953125 C-83.81452352 156.87695206 -83.81452352 156.87695206 -83.0625 153.5 C-82 151 -82 151 -79.5 149.625 C-71.89421833 148.2668247 -65.06832833 149.07562773 -57.5390625 150.5390625 C-52.49852007 151.45411482 -49.27184168 151.67191636 -44.6875 149.25 C-41.51230368 146.5916961 -40.29974516 144.70798184 -39.5859375 140.640625 C-39.51632813 139.85171875 -39.44671875 139.0628125 -39.375 138.25 C-39.30023438 137.45078125 -39.22546875 136.6515625 -39.1484375 135.828125 C-39.09945312 135.22484375 -39.05046875 134.6215625 -39 134 C-38.33613281 134.03480469 -37.67226562 134.06960938 -36.98828125 134.10546875 C-29.99804155 134.34474123 -29.99804155 134.34474123 -24 131 C-23.443125 130.566875 -22.88625 130.13375 -22.3125 129.6875 C-19.38428601 125.92265344 -18.7965328 122.1454647 -19.125 117.5 C-19.73131472 113.06117744 -21.32683235 110.53547979 -24 107 C-24 106.34 -24 105.68 -24 105 C-23.26394531 104.78085937 -22.52789062 104.56171875 -21.76953125 104.3359375 C-15.4033204 102.26712922 -11.63819655 100.69984126 -8 95 C-6.74502043 91.2350613 -6.47935556 88.96991382 -7 85 C-10.24281349 80.01549737 -14.79825565 76.14153315 -19.35546875 72.38671875 C-21.71939035 70.39338819 -23.84734697 68.21788494 -26 66 C-25 63 -25 63 -22.125 61.25 C-18.27917813 58.48100825 -17.30362782 56.52435539 -16 52 C-15.81675675 46.9608107 -17.18178029 44.45061691 -20.375 40.75 C-22.11808926 38.89564972 -23.79613622 37.16202274 -25.7890625 35.578125 C-27 34 -27 34 -27.07421875 31.62890625 C-25.57047408 27.94883293 -22.95155498 26.17671563 -19.8125 23.9375 C-19.24724609 23.51662109 -18.68199219 23.09574219 -18.09960938 22.66210938 C-14.47908974 19.987155 -10.76109593 17.47370525 -7 15 C-3.17780688 12.45187125 -3.04883561 10.72349076 -1.8125 6.375 C-1.29623047 4.59222656 -1.29623047 4.59222656 -0.76953125 2.7734375 C-0.51558594 1.85820312 -0.26164062 0.94296875 0 0 Z " fill="#05658C" transform="translate(198,226)"/>
<path d="M0 0 C14.19 0 28.38 0 43 0 C46.375 10.125 46.375 10.125 47.44213867 14.88696289 C47.6821611 15.94738297 47.92218353 17.00780304 48.16947937 18.10035706 C48.41648087 19.21321579 48.66348236 20.32607452 48.91796875 21.47265625 C49.18007645 22.6363121 49.44218414 23.79996796 49.7122345 24.99888611 C50.54165654 28.68580007 51.36467361 32.37410908 52.1875 36.0625 C52.75152936 38.57496496 53.31597817 41.0873358 53.88085938 43.59960938 C55.25876074 49.73199234 56.63141791 55.8655309 58 62 C61.15314896 49.53629266 61.15314896 49.53629266 64 37 C65.82929555 28.62005813 67.88573989 20.31233824 70 12 C70.99 8.04 71.98 4.08 73 0 C87.19 0 101.38 0 116 0 C116 38.28 116 76.56 116 116 C106.76 116 97.52 116 88 116 C87.67 93.23 87.34 70.46 87 47 C82.10565619 68.95907908 82.10565619 68.95907908 77.21704102 90.91943359 C76.26940918 95.16333008 76.26940918 95.16333008 75.82530212 97.14907837 C75.5152114 98.53794137 75.20616353 99.92703746 74.89793396 101.3163147 C74.43122504 103.41894978 73.96122654 105.52082467 73.49047852 107.62255859 C73.22622574 108.80836517 72.96197296 109.99417175 72.68971252 111.21591187 C72 114 72 114 71 116 C62.75 116 54.5 116 46 116 C44.28724172 111.71810429 43.08547225 107.6113374 42.046875 103.1484375 C41.86417053 102.37609772 41.68146606 101.60375793 41.4932251 100.80801392 C41.10482055 99.16264159 40.71828932 97.51682609 40.33349609 95.87060547 C39.76947706 93.45830313 39.19979239 91.0474039 38.62890625 88.63671875 C35.29030006 74.45049108 32.16214329 60.22964481 29 46 C28.67 69.1 28.34 92.2 28 116 C18.76 116 9.52 116 0 116 C0 77.72 0 39.44 0 0 Z " fill="#8CC540" transform="translate(369,289)"/>
<path d="M0 0 C2.10959708 0.84198831 4.21368627 1.69788736 6.3125 2.56640625 C7.36695313 2.96794922 8.42140625 3.36949219 9.5078125 3.78320312 C17.00873909 6.86159092 20.90494357 10.40670392 25.3125 17.12890625 C26.38430502 18.51291135 27.46627525 19.8891618 28.5625 21.25390625 C29.12453125 21.98738281 29.6865625 22.72085937 30.265625 23.4765625 C31.40062351 24.9472953 32.54209251 26.41332802 33.70898438 27.85888672 C35.26447036 29.78731092 36.78906446 31.73760258 38.3125 33.69140625 C38.81813477 34.3045166 39.32376953 34.91762695 39.84472656 35.54931641 C40.3084668 36.15437012 40.77220703 36.75942383 41.25 37.3828125 C41.67152344 37.91205322 42.09304688 38.44129395 42.52734375 38.98657227 C44.79686843 45.17907199 41.30793227 54.26156496 39.94921875 60.50390625 C39.7159639 61.58663818 39.48270905 62.66937012 39.24238586 63.78491211 C38.74895915 66.07132571 38.25382326 68.35737105 37.75708008 70.64306641 C37.00862335 74.08920156 36.2665805 77.53667051 35.52539062 80.984375 C32.9845871 92.75467258 30.32927126 104.47114117 27.3125 116.12890625 C26.89325509 117.81576756 26.47588372 119.50309903 26.0625 121.19140625 C25.91296875 121.80113281 25.7634375 122.41085937 25.609375 123.0390625 C24.51431602 130.74770138 26.53318683 135.58603788 29.875 142.37890625 C30.73925356 144.15068969 31.59515781 145.92657784 32.44140625 147.70703125 C32.82369385 148.4846582 33.20598145 149.26228516 33.59985352 150.06347656 C34.3125 152.12890625 34.3125 152.12890625 33.3125 155.12890625 C31.12785705 156.49904523 28.99776204 157.69347896 26.70703125 158.859375 C26.03137619 159.21348953 25.35572113 159.56760406 24.65959167 159.93244934 C22.48603062 161.06960133 20.3059557 162.19351172 18.125 163.31640625 C15.29603279 164.78496403 12.46986987 166.25885007 9.64453125 167.734375 C8.94070313 168.10102768 8.236875 168.46768036 7.51171875 168.84544373 C1.83096856 171.81961708 -3.72619562 174.97674067 -9.27758789 178.18432617 C-15.63681757 181.8108218 -22.11890714 185.20652502 -28.58837891 188.6315918 C-35.91143431 192.51271043 -43.10881559 196.49922718 -50.15966797 200.85913086 C-52.6875 202.12890625 -52.6875 202.12890625 -56.6875 202.12890625 C-56.90921875 201.01773438 -57.1309375 199.9065625 -57.359375 198.76171875 C-60.00105161 187.22367417 -63.67840965 181.62603507 -73.6875 175.12890625 C-73.26208535 170.68760382 -70.20491746 168.23120606 -67.19140625 165.26953125 C-66.36829201 164.44566925 -66.36829201 164.44566925 -65.52854919 163.60516357 C-64.36954741 162.44849851 -63.20686026 161.29551608 -62.04077148 160.14599609 C-60.25127736 158.38016672 -58.47554682 156.60132017 -56.70117188 154.8203125 C-55.57370794 153.69842298 -54.4454786 152.57730204 -53.31640625 151.45703125 C-52.78302139 150.92273499 -52.24963654 150.38843872 -51.7000885 149.83795166 C-47.91853676 146.12890625 -47.91853676 146.12890625 -45.6875 146.12890625 C-45.58872559 145.44618652 -45.48995117 144.7634668 -45.38818359 144.06005859 C-44.54388854 140.52813999 -43.08397608 137.46196116 -41.4765625 134.23046875 C-41.15296249 133.56805176 -40.82936249 132.90563477 -40.49595642 132.22314453 C-39.43998992 130.06414695 -38.37619214 127.90910646 -37.3125 125.75390625 C-36.57347035 124.24560659 -35.83511328 122.7369772 -35.09741211 121.22802734 C-33.98918093 118.96132578 -32.88057841 116.69481674 -31.76982117 114.42935181 C-28.89045947 108.55610211 -26.0577956 102.66171148 -23.25 96.75390625 C-15.8245266 81.16639215 -8.24294506 65.65370221 -0.6875 50.12890625 C-1.29851562 49.84144531 -1.90953125 49.55398438 -2.5390625 49.2578125 C-10.48890215 45.08053312 -15.29148308 35.9923749 -18.0625 27.81640625 C-20.64448452 18.56879643 -21.10981376 9.815594 -16.6875 1.12890625 C-12.10026756 -4.11364511 -5.76382324 -2.07765721 0 0 Z " fill="#00AEEF" transform="translate(257.6875,328.87109375)"/>
<path d="M0 0 C1.90072266 0.02513672 1.90072266 0.02513672 3.83984375 0.05078125 C38.32496396 1.3612907 75.84716543 10.57271372 106.1875 27.04248047 C108.02001647 28.01057443 109.87354228 28.90556669 111.75 29.78515625 C124.96179239 36.0209883 138.77526494 43.59423614 150 53 C150 53.66 150 54.32 150 55 C150.53109375 55.23460937 151.0621875 55.46921875 151.609375 55.7109375 C166.36301959 63.66633409 178.66028901 77.73577759 189.47924805 90.25170898 C191.16808669 92.19323627 192.92646953 94.06153047 194.6875 95.9375 C203.60526983 105.94830387 211.02524596 117.57616887 218 129 C218.55558594 129.84046875 219.11117188 130.6809375 219.68359375 131.546875 C221 134 221 134 221 138 C213.27773322 138.25377585 205.55654195 138.42875637 197.83105469 138.54931641 C195.20401839 138.59957444 192.57726138 138.66779501 189.95117188 138.75439453 C186.17247726 138.87587299 182.39747968 138.9324402 178.6171875 138.9765625 C176.85905228 139.05398178 176.85905228 139.05398178 175.06539917 139.13296509 C171.75181374 139.13523892 169.14772997 139.04406507 166 138 C162.90069158 134.74196376 160 130.64858338 160 126 C159.34 126 158.68 126 158 126 C156.37697368 123.90635639 154.86607485 121.80993027 153.375 119.625 C149.13950219 113.55209447 144.70277722 107.72188921 140 102 C139.56300781 101.43925781 139.12601563 100.87851563 138.67578125 100.30078125 C135.91168111 96.80203656 132.80270771 94.04186312 129.421875 91.17578125 C126.9776347 88.9799073 124.69753694 86.68174848 122.40820312 84.32739258 C116.06158901 77.81164755 109.48047491 72.21539472 102 67 C100.80984671 66.16152806 99.61974418 65.32298406 98.4296875 64.484375 C92.88888081 60.45583882 92.88888081 60.45583882 87 57 C87 56.34 87 55.68 87 55 C86.13375 54.7421875 85.2675 54.484375 84.375 54.21875 C80.91940684 52.97089692 78.13305396 51.41116291 75 49.5 C21.77222928 18.20323426 -45.23412184 8.82427128 -105.08154297 23.76953125 C-110.749364 25.26045877 -116.38745416 26.84200482 -122.00488281 28.51269531 C-124 29 -124 29 -127 29 C-127 28.01 -127 27.02 -127 26 C-103.15774295 15.65271226 -79.38674239 8.00213552 -53.75 3.5625 C-53.0283667 3.43644379 -52.3067334 3.31038757 -51.56323242 3.18051147 C-34.42126672 0.23230699 -17.3716921 -0.29680278 0 0 Z " fill="#8CC63F" transform="translate(602,112)"/>
<path d="M0 0 C2.30653328 0.00094954 4.61320249 0.03482681 6.91894531 0.09521484 C8.13406799 0.10370453 9.34919067 0.11219421 10.60113525 0.12094116 C14.48401364 0.15454065 18.3648191 0.22984156 22.24707031 0.30615234 C24.87855075 0.33624305 27.51006372 0.36362039 30.14160156 0.38818359 C36.59413231 0.45435408 43.04545324 0.5547718 49.49707031 0.68115234 C48.69586995 5.43358891 46.81541105 8.90819366 44.24707031 12.93115234 C43.80886963 13.62426514 43.37066895 14.31737793 42.91918945 15.03149414 C37.60406229 23.28127463 31.61728186 31.01831681 25.49707031 38.68115234 C24.84311279 39.51316162 24.18915527 40.3451709 23.51538086 41.20239258 C17.58334807 48.63030023 11.15942945 55.41782964 4.43457031 62.11865234 C3.61161469 62.94129074 3.61161469 62.94129074 2.77203369 63.7805481 C-5.76464139 72.28451739 -14.45558744 79.98561856 -24.50292969 86.68115234 C-25.78616148 87.56167301 -27.06870435 88.44319844 -28.35058594 89.32568359 C-32.03037497 91.83715243 -35.75605883 94.27126148 -39.50292969 96.68115234 C-40.58058594 97.37982422 -41.65824219 98.07849609 -42.76855469 98.79833984 C-56.22475302 107.31617968 -70.52992271 113.81799707 -85.27001953 119.77148438 C-87.26052602 120.58239922 -89.23555477 121.42189914 -91.20996094 122.27099609 C-116.11399145 132.4430649 -144.71680199 136.93398002 -171.50292969 137.68115234 C-172.26831055 137.70306641 -173.03369141 137.72498047 -173.82226562 137.74755859 C-214.66970288 138.7228257 -253.74815406 131.16670859 -291.11303711 114.71508789 C-293.55906663 113.6568659 -296.02420153 112.66001139 -298.50292969 111.68115234 C-298.50292969 110.69115234 -298.50292969 109.70115234 -298.50292969 108.68115234 C-293.6364101 109.74128628 -288.78980777 110.84739706 -283.95605469 112.04833984 C-216.42536135 128.63271339 -149.09101504 120.20196964 -89.17480469 84.18505859 C-79.47968743 78.25142605 -69.76892393 72.14628675 -61.40136719 64.39990234 C-59.12341818 62.33756168 -56.72557638 60.46217093 -54.31542969 58.55615234 C-43.8682352 50.03611024 -34.75703968 40.32499578 -26.50292969 29.68115234 C-25.61373576 28.54823859 -24.72440687 27.41543076 -23.83496094 26.28271484 C-22.9316735 25.1245961 -22.02931295 23.96575376 -21.12792969 22.80615234 C-20.71067627 22.27054688 -20.29342285 21.73494141 -19.86352539 21.18310547 C-18.02066603 18.78562101 -16.3521277 16.41990383 -14.83886719 13.79833984 C-14.17757812 12.75033203 -14.17757812 12.75033203 -13.50292969 11.68115234 C-12.84292969 11.68115234 -12.18292969 11.68115234 -11.50292969 11.68115234 C-11.13167969 10.62927734 -11.13167969 10.62927734 -10.75292969 9.55615234 C-10.34042969 8.60740234 -9.92792969 7.65865234 -9.50292969 6.68115234 C-8.85855957 5.12533447 -8.85855957 5.12533447 -8.20117188 3.53808594 C-5.06421044 0.21663075 -4.38106612 0.22675977 0 0 Z " fill="#8CC63F" transform="translate(773.5029296875,506.31884765625)"/>
<path d="M0 0 C7.38709297 6.8767584 9.75556321 15.68077706 10.26953125 25.515625 C10.28371094 26.17046875 10.29789063 26.8253125 10.3125 27.5 C-0.374663 28.29585256 -10.97149677 28.62825004 -21.6875 28.5 C-21.83445312 27.89671875 -21.98140625 27.2934375 -22.1328125 26.671875 C-23.28398987 22.56997862 -24.1916239 19.9958761 -27.25 16.9375 C-31.71437498 15.07057955 -35.90664014 14.58661713 -40.6875 15.5 C-42.93332148 17.2634974 -43.60944633 18.2769895 -44.5625 21 C-44.96748743 23.51139094 -44.96748743 23.51139094 -43.41748047 25.06152344 C-38.80781073 28.89445797 -31.9245739 30.03514812 -26.22729492 31.5402832 C-11.1982363 35.54298347 1.99619021 39.91932679 10.6796875 53.6640625 C14.98210666 62.29857269 14.63176201 73.65082304 12.546875 82.89453125 C8.64804884 94.20422142 1.72626437 102.22749088 -8.96484375 107.45703125 C-16.8419356 110.4745112 -23.99995607 110.85402019 -32.375 110.8125 C-33.53241699 110.80758545 -34.68983398 110.8026709 -35.88232422 110.79760742 C-48.19458362 110.62845915 -59.22312643 109.51056469 -68.55078125 100.75 C-77.35958298 91.39418488 -80.6875 81.18784959 -80.6875 68.5 C-64.8475 67.51 -64.8475 67.51 -48.6875 66.5 C-47.6975 69.8 -46.7075 73.1 -45.6875 76.5 C-43.66925752 80.46440488 -42.30290227 82.12593195 -38.5 84.4375 C-32.64686362 86.06870194 -28.05461586 85.78218776 -22.6875 82.875 C-20.01526266 79.70171816 -19.6875 77.62205967 -19.6875 73.5 C-22.23827094 67.99702533 -25.40602384 66.92738718 -30.83203125 64.8125 C-34.56792643 63.49147625 -38.3649415 62.40872178 -42.17333984 61.31835938 C-55.67508572 57.45143937 -66.98650915 52.62671834 -74.625 40.1875 C-78.42983199 31.88028349 -78.26703701 21.49198386 -75.54296875 12.8828125 C-72.82740778 7.13642754 -69.60919327 2.52683995 -64.6875 -1.5 C-64.0275 -1.5 -63.3675 -1.5 -62.6875 -1.5 C-62.6875 -2.16 -62.6875 -2.82 -62.6875 -3.5 C-43.98502379 -13.01286444 -16.85056094 -13.38051132 0 0 Z " fill="#8CC540" transform="translate(585.6875,296.5)"/>
<path d="M0 0 C6.94094311 3.8725102 17.25131031 10.83434544 19.9375 18.6875 C20.36306948 23.64361122 19.59341243 26.88400728 16.4375 30.75 C12.5746001 33.50113846 8.48561362 33.14231136 3.9375 32.6875 C4.53175781 33.22117187 5.12601562 33.75484375 5.73828125 34.3046875 C7.49222306 35.8813257 9.24471237 37.45958057 10.99609375 39.0390625 C12.96279086 40.80987344 14.93418581 42.57548026 16.91015625 44.3359375 C17.86792969 45.19445312 18.82570313 46.05296875 19.8125 46.9375 C20.69679688 47.72640625 21.58109375 48.5153125 22.4921875 49.328125 C28.74496644 55.36115772 28.74496644 55.36115772 29.5 60.5625 C29.25053067 65.26677883 27.21272417 68.40320318 23.9375 71.6875 C20.21104587 74.17180275 16.76905216 73.82885416 12.48828125 73.24609375 C8.58490041 72.39129519 4.93312328 70.99378712 1.22265625 69.52734375 C-0.9696056 68.57251276 -0.9696056 68.57251276 -3.0625 68.6875 C-2.26585937 69.20699219 -1.46921875 69.72648437 -0.6484375 70.26171875 C14.12237071 79.98313875 14.12237071 79.98313875 16.3125 84.5625 C17.56493843 90.82469213 17.42043257 95.21432025 13.9375 100.6875 C10.16262195 104.13625468 7.41061119 104.06433572 2.48828125 103.92578125 C-0.91816821 103.60756775 -3.83571379 102.80986042 -7.0625 101.6875 C-6.5778125 102.24566406 -6.093125 102.80382812 -5.59375 103.37890625 C-3.01872283 107.26115384 -3.31526624 111.19684274 -4.0625 115.6875 C-6 118.8125 -6 118.8125 -9.0625 120.6875 C-14.24845663 121.60440868 -18.68936627 120.53223491 -23.703125 119.1484375 C-31.94292873 117.53867452 -39.95870837 117.78920679 -47.390625 121.8125 C-49.0625 122.6875 -49.0625 122.6875 -51.0625 122.6875 C-51.31 120.7384375 -51.31 120.7384375 -51.5625 118.75 C-52.69341783 113.46961162 -55.42287059 110.56507331 -59.1875 106.828125 C-63.48545994 101.9212874 -63.49809722 96.83667072 -63.375 90.56640625 C-62.94616117 86.61572848 -61.78948696 84.55801259 -59.0625 81.6875 C-56 79.4375 -56 79.4375 -53.0625 77.6875 C-51.5775 76.6975 -51.5775 76.6975 -50.0625 75.6875 C-50.701875 74.73875 -51.34125 73.79 -52 72.8125 C-54.57322242 68.27260044 -55.26300226 63.87549605 -55.0625 58.6875 C-53.46232056 52.94567964 -51.02117274 49.96209521 -46.0625 46.6875 C-43.38735683 45.76204507 -40.85760114 45.21760539 -38.0625 44.6875 C-38.3925 43.718125 -38.7225 42.74875 -39.0625 41.75 C-40.63712541 36.15384925 -40.84776135 30.95603278 -38.9375 25.4375 C-35.88178516 20.95578491 -32.523774 17.78447296 -27.0625 16.6875 C-27.08570313 15.86765625 -27.10890625 15.0478125 -27.1328125 14.203125 C-27.15085938 13.12546875 -27.16890625 12.0478125 -27.1875 10.9375 C-27.21070313 9.87015625 -27.23390625 8.8028125 -27.2578125 7.703125 C-27.06458007 4.71961629 -26.69378776 3.15405194 -25.0625 0.6875 C-17.9162829 -4.72044807 -7.72843323 -3.51384743 0 0 Z " fill="#00AEEF" transform="translate(160.0625,254.3125)"/>
<path d="M0 0 C10.02375 -0.061875 20.0475 -0.12375 30.375 -0.1875 C35.09369385 -0.22846802 35.09369385 -0.22846802 39.90771484 -0.27026367 C42.42545183 -0.2790327 44.9431931 -0.28667565 47.4609375 -0.29296875 C48.74846924 -0.30831665 50.03600098 -0.32366455 51.36254883 -0.33947754 C63.89798645 -0.34309145 72.6600804 1.8598061 81.72265625 10.67578125 C88.35580924 18.28679463 89.61774507 29.40679763 89.28515625 39.2109375 C88.19792534 49.84494943 85.68509095 58.78493141 77.8125 66.25 C70.43874628 72.15866292 61.44355429 74.14754599 52.1640625 74.09765625 C51.2045166 74.09515869 50.2449707 74.09266113 49.25634766 74.09008789 C48.05800293 74.08098389 46.8596582 74.07187988 45.625 74.0625 C41.78875 74.041875 37.9525 74.02125 34 74 C34 87.86 34 101.72 34 116 C22.78 116 11.56 116 0 116 C0 77.72 0 39.44 0 0 Z M34 25 C34 32.92 34 40.84 34 49 C45.40800062 49.19467922 45.40800062 49.19467922 54.5 43.75 C56.43935576 40.19451445 56.50011751 38.00094008 56 34 C54.32960956 30.32514103 52.45118836 28.09162931 49 26 C43.90858969 24.55535135 43.90858969 24.55535135 34 25 Z " fill="#8CC540" transform="translate(682,289)"/>
<path d="M0 0 C9.796875 -0.0825 19.59375 -0.165 29.6875 -0.25 C34.28691528 -0.30462402 34.28691528 -0.30462402 38.97924805 -0.36035156 C41.44839786 -0.37204957 43.91755547 -0.38223875 46.38671875 -0.390625 C48.26260681 -0.4213208 48.26260681 -0.4213208 50.1763916 -0.45263672 C60.22834735 -0.45656518 71.9210815 0.63361687 79.50390625 8.02734375 C88.02595629 19.26398936 89.07490555 31.40405566 88 45 C86.24392187 54.7336902 82.61259718 63.01883725 74.375 68.8125 C65.09874003 73.88747175 55.10313494 74.42393982 44.75 74.1875 C38.93375 74.0946875 38.93375 74.0946875 33 74 C33 87.86 33 101.72 33 116 C22.11 116 11.22 116 0 116 C0 77.72 0 39.44 0 0 Z M33 25 C33 32.92 33 40.84 33 49 C44.39731401 49.32251124 44.39731401 49.32251124 54 44.1875 C56.03431511 39.7374357 56.33042371 37.02605257 54.8125 32.3125 C53.07226059 29.13206247 52.12764824 27.70598995 49 26 C43.74689927 24.51492875 43.74689927 24.51492875 33 25 Z " fill="#8CC540" transform="translate(792,289)"/>
<path d="M0 0 C11.22 0 22.44 0 34 0 C34 38.28 34 76.56 34 116 C22.78 116 11.56 116 0 116 C0 77.72 0 39.44 0 0 Z " fill="#8CC540" transform="translate(621,289)"/>
<path d="M0 0 C3.96 0 7.92 0 12 0 C12.66 1.65 13.32 3.3 14 5 C15.93798263 2.22739701 15.93798263 2.22739701 17 0 C20.96 0 24.92 0 29 0 C29 7.26 29 14.52 29 22 C26.36 22 23.72 22 21 22 C20.67 20.68 20.34 19.36 20 18 C19.34 19.32 18.68 20.64 18 22 C15.69 22 13.38 22 11 22 C10.34 20.68 9.68 19.36 9 18 C8.67 19.32 8.34 20.64 8 22 C5.36 22 2.72 22 0 22 C0 14.74 0 7.48 0 0 Z " fill="#05658C" transform="translate(337,426)"/>
<path d="M0 0 C2.36673689 0.2913939 2.36673689 0.2913939 5.87890625 -0.4453125 C9.06640625 -0.8203125 9.06640625 -0.8203125 11.25 0.17578125 C13.93555767 3.13855777 13.49993068 6.08729015 13.31640625 9.8671875 C13.29835938 10.56908203 13.2803125 11.27097656 13.26171875 11.99414062 C13.21466838 13.72324186 13.14292498 15.45163955 13.06640625 17.1796875 C10.42640625 17.1796875 7.78640625 17.1796875 5.06640625 17.1796875 C4.57140625 12.2296875 4.57140625 12.2296875 4.06640625 7.1796875 C3.73640625 7.1796875 3.40640625 7.1796875 3.06640625 7.1796875 C2.73640625 10.4796875 2.40640625 13.7796875 2.06640625 17.1796875 C-0.90359375 17.1796875 -3.87359375 17.1796875 -6.93359375 17.1796875 C-7.26359375 13.8796875 -7.59359375 10.5796875 -7.93359375 7.1796875 C-8.26359375 10.4796875 -8.59359375 13.7796875 -8.93359375 17.1796875 C-11.90359375 17.1796875 -14.87359375 17.1796875 -17.93359375 17.1796875 C-17.93359375 11.5696875 -17.93359375 5.9596875 -17.93359375 0.1796875 C-11.70471262 -0.52993187 -6.19270636 -0.90841131 0 0 Z " fill="#05658C" transform="translate(809.93359375,466.8203125)"/>
<path d="M0 0 C0.66 0.33 1.32 0.66 2 1 C1.67 2.32 1.34 3.64 1 5 C1.66 5 2.32 5 3 5 C3.33 4.01 3.66 3.02 4 2 C10.0018137 1.78175223 15.19233704 2.4943096 21 4 C20.85946128 6.62538284 20.71281053 9.25017427 20.5625 11.875 C20.52318359 12.62136719 20.48386719 13.36773438 20.44335938 14.13671875 C20.11328125 19.7734375 20.11328125 19.7734375 19 22 C16.69 21.67 14.38 21.34 12 21 C12.33 16.71 12.66 12.42 13 8 C12.67 9.32 12.34 10.64 12 12 C11.01 12 10.02 12 9 12 C8.67 14.64 8.34 17.28 8 20 C5.69 19.67 3.38 19.34 1 19 C1 16.36 1 13.72 1 11 C-0.65 10.67 -2.3 10.34 -4 10 C-4.33 12.64 -4.66 15.28 -5 18 C-7.31 17.67 -9.62 17.34 -12 17 C-12.10794277 14.73020335 -12.18556176 12.45894804 -12.25 10.1875 C-12.29640625 8.92292969 -12.3428125 7.65835938 -12.390625 6.35546875 C-12 3 -12 3 -10.2421875 1.06640625 C-6.63443484 -0.64947611 -3.9703434 -0.25615119 0 0 Z " fill="#05658C" transform="translate(436,717)"/>
<path d="M0 0 C0.74507812 0.05671875 1.49015625 0.1134375 2.2578125 0.171875 C4.08935108 0.31276258 5.91981352 0.46751884 7.75 0.625 C7.86644156 3.70801416 7.93732432 6.79046123 8 9.875 C8.05027344 11.18404297 8.05027344 11.18404297 8.1015625 12.51953125 C8.19999139 18.96662334 8.19999139 18.96662334 6.00390625 22.1796875 C1.89363313 24.81539123 -2.58561067 25.07977517 -7.35546875 24.265625 C-11.82613314 23.04886686 -11.82613314 23.04886686 -13.25 21.625 C-13.29384447 19.95891013 -13.2896713 18.29119446 -13.25 16.625 C-13.15895537 13.54457724 -13.15895537 13.54457724 -13.875 10.25 C-14.26298963 6.49943356 -14.17059809 4.82599682 -12.25 1.625 C-8.49126995 -1.15889732 -4.40576521 -0.38920187 0 0 Z M-4.25 6.625 C-4.58 7.945 -4.91 9.265 -5.25 10.625 C-3.93 10.625 -2.61 10.625 -1.25 10.625 C-1.58 9.305 -1.91 7.985 -2.25 6.625 C-2.91 6.625 -3.57 6.625 -4.25 6.625 Z " fill="#05658C" transform="translate(739.25,466.375)"/>
<path d="M0 0 C1.43472656 -0.02126953 1.43472656 -0.02126953 2.8984375 -0.04296875 C5.70438007 0.19420978 7.32258262 0.58005192 9.625 2.1875 C10.375 5.3125 10.375 5.3125 10.625 8.1875 C9.965 8.1875 9.305 8.1875 8.625 8.1875 C9.12 8.703125 9.615 9.21875 10.125 9.75 C12.19351618 13.1113388 12.11005011 15.30709911 11.625 19.1875 C9.40636971 22.09467073 8.10555071 23.02731643 4.625 24.1875 C-1.08781183 24.75334041 -5.45346434 24.42851129 -10.375 21.1875 C-12.375 18.1875 -12.375 18.1875 -12.375 14.1875 C-11.055 13.8575 -9.735 13.5275 -8.375 13.1875 C-9.035 12.5275 -9.695 11.8675 -10.375 11.1875 C-10.94117647 4.95955882 -10.94117647 4.95955882 -9 2.3125 C-5.87906065 0.15184968 -3.7702305 0.02526964 0 0 Z M-2.375 15.1875 C-2.045 15.8475 -1.715 16.5075 -1.375 17.1875 C-0.055 16.8575 1.265 16.5275 2.625 16.1875 C0.975 15.8575 -0.675 15.5275 -2.375 15.1875 Z " fill="#05658C" transform="translate(522.375,424.8125)"/>
<path d="M0 0 C1.18916016 0.02707031 1.18916016 0.02707031 2.40234375 0.0546875 C4.35208348 0.10166918 6.30119878 0.17340956 8.25 0.25 C8.38530844 3.31398451 8.4842407 6.37197126 8.5625 9.4375 C8.60439453 10.30181641 8.64628906 11.16613281 8.68945312 12.05664062 C8.77410421 16.47542709 8.69393693 18.61163814 6.109375 22.328125 C2.82100865 24.53833845 1.11603961 24.89693132 -2.8125 24.8125 C-4.34583984 24.81443359 -4.34583984 24.81443359 -5.91015625 24.81640625 C-9.41425218 24.11751504 -10.64774283 23.10846478 -12.75 20.25 C-12.75 18.93 -12.75 17.61 -12.75 16.25 C-12.09 15.92 -11.43 15.59 -10.75 15.25 C-11.41 14.59 -12.07 13.93 -12.75 13.25 C-13.0859375 11.2265625 -13.0859375 11.2265625 -13.125 8.875 C-13.15335938 8.10414063 -13.18171875 7.33328125 -13.2109375 6.5390625 C-11.75562467 -0.68816903 -6.02673356 -0.25985916 0 0 Z M-2.75 6.25 C-3.74 7.735 -3.74 7.735 -4.75 9.25 C-3.265 10.24 -3.265 10.24 -1.75 11.25 C-1.42 9.93 -1.09 8.61 -0.75 7.25 C-1.41 6.92 -2.07 6.59 -2.75 6.25 Z M-1.75 16.25 C-2.41 16.91 -3.07 17.57 -3.75 18.25 C-2.76 18.25 -1.77 18.25 -0.75 18.25 C-1.08 17.59 -1.41 16.93 -1.75 16.25 Z " fill="#05658C" transform="translate(650.75,430.75)"/>
<path d="M0 0 C1.4391134 0.28359887 2.87625518 0.57721399 4.3125 0.875 C5.11300781 1.03742187 5.91351563 1.19984375 6.73828125 1.3671875 C9 2 9 2 12 4 C12 4.66 12 5.32 12 6 C13.155 5.9175 14.31 5.835 15.5 5.75 C20.39304621 5.71504967 23.86849494 7.53867784 28 10 C25.9673913 20.76086957 25.9673913 20.76086957 23 25 C18.36118941 26.83394837 15.03521481 25.58197328 10.63671875 23.7890625 C9 23 9 23 8 22 C7.95919217 20.00041636 7.95745644 17.99954746 8 16 C8.66 16 9.32 16 10 16 C10 13.36 10 10.72 10 8 C7.58414426 8.03093173 7.58414426 8.03093173 5 9 C3.14083176 11.96707046 3.14083176 11.96707046 2 15 C-0.31 14.34 -2.62 13.68 -5 13 C-4.54803755 11.39402675 -4.08817673 9.79027492 -3.625 8.1875 C-3.36976563 7.29417969 -3.11453125 6.40085937 -2.8515625 5.48046875 C-2 3 -2 3 0 0 Z M17 13 C17 13.66 17 14.32 17 15 C17.66 15 18.32 15 19 15 C19 14.34 19 13.68 19 13 C18.34 13 17.68 13 17 13 Z " fill="#05658C" transform="translate(346,695)"/>
<path d="M0 0 C4.58002044 2.06252576 7.90334319 5.06398621 11 9 C11.9375 12.4375 11.9375 12.4375 12 15 C9 17 9 17 6 17 C6 17.99 6 18.98 6 20 C3 22 3 22 -1 22 C-1.33 23.32 -1.66 24.64 -2 26 C-2.66 26 -3.32 26 -4 26 C-4 26.66 -4 27.32 -4 28 C-7.1167571 27.69747053 -8.00963006 26.98954006 -10.17578125 24.63671875 C-10.88089844 23.66347656 -11.58601562 22.69023438 -12.3125 21.6875 C-13.03050781 20.72199219 -13.74851562 19.75648438 -14.48828125 18.76171875 C-16 16 -16 16 -15.8359375 13.7578125 C-14.63188907 11.22593496 -13.49551171 10.28147899 -11 9 C-7.75 9.3125 -7.75 9.3125 -5 10 C-5.33 8.35 -5.66 6.7 -6 5 C-4.02 3.35 -2.04 1.7 0 0 Z " fill="#05658C" transform="translate(783,627)"/>
<path d="M0 0 C2.8875 -0.061875 5.775 -0.12375 8.75 -0.1875 C9.65331055 -0.21481201 10.55662109 -0.24212402 11.48730469 -0.27026367 C14.94794783 -0.30623146 17.39868613 -0.29006718 20.55078125 1.23046875 C22.37585019 3.4589222 22.50895024 4.64199046 22.4375 7.5 C22.43621094 8.2734375 22.43492187 9.046875 22.43359375 9.84375 C21.89246335 12.53477685 21.22491598 13.4100711 19 15 C16.73828125 15.51171875 16.73828125 15.51171875 14.3125 15.6875 C13.10013672 15.78611328 13.10013672 15.78611328 11.86328125 15.88671875 C11.24839844 15.92410156 10.63351562 15.96148437 10 16 C10 18.31 10 20.62 10 23 C6.7 23 3.4 23 0 23 C0 15.41 0 7.82 0 0 Z M10 6 C10 6.99 10 7.98 10 9 C10.99 8.67 11.98 8.34 13 8 C12.67 7.34 12.34 6.68 12 6 C11.34 6 10.68 6 10 6 Z " fill="#05658C" transform="translate(415,461)"/>
<path d="M0 0 C1.54785561 3.86963902 1.76541544 7.40320496 1 11.5 C-1.0625 14.5625 -1.0625 14.5625 -4 16.5 C-7.8125 16.8125 -7.8125 16.8125 -11 16.5 C-11.33 18.15 -11.66 19.8 -12 21.5 C-14.64 21.5 -17.28 21.5 -20 21.5 C-20 13.91 -20 6.32 -20 -1.5 C-4.11764706 -3.08823529 -4.11764706 -3.08823529 0 0 Z M-11 4.5 C-11.33 5.49 -11.66 6.48 -12 7.5 C-11.67 8.16 -11.34 8.82 -11 9.5 C-10.01 9.17 -9.02 8.84 -8 8.5 C-8.33 7.18 -8.66 5.86 -9 4.5 C-9.66 4.5 -10.32 4.5 -11 4.5 Z " fill="#05658C" transform="translate(643,468.5)"/>
<path d="M0 0 C3.35651124 0.0809448 4.62514041 0.3391764 7.625 2.0625 C9.74521158 4.43970692 10.76179631 6.34542428 11.6875 9.375 C12.36296875 9.26800781 13.0384375 9.16101563 13.734375 9.05078125 C14.62640625 8.93089844 15.5184375 8.81101562 16.4375 8.6875 C17.31921875 8.55988281 18.2009375 8.43226563 19.109375 8.30078125 C22.24426517 8.39102809 23.40573587 9.30115363 25.6875 11.375 C25.3575 12.695 25.0275 14.015 24.6875 15.375 C24.0275 15.375 23.3675 15.375 22.6875 15.375 C22.0275 16.695 21.3675 18.015 20.6875 19.375 C19.6975 19.375 18.7075 19.375 17.6875 19.375 C15.97038757 21.81996043 15.97038757 21.81996043 14.6875 24.375 C9.9375 23.625 9.9375 23.625 7.6875 21.375 C8.08282025 18.92401444 8.90051426 16.73595721 9.6875 14.375 C8.6975 15.035 7.7075 15.695 6.6875 16.375 C2.66258435 16.91165542 0.9511219 16.52421994 -2.625 14.5 C-5.3125 12.375 -5.3125 12.375 -6.3125 10.375 C-6.48046875 8.5 -6.48046875 8.5 -6.5 6.375 C-6.51417969 5.67375 -6.52835938 4.9725 -6.54296875 4.25 C-6.04882769 0.22986938 -3.45897986 0.05813412 0 0 Z M0.6875 6.375 C1.0175 7.695 1.3475 9.015 1.6875 10.375 C2.3475 10.045 3.0075 9.715 3.6875 9.375 C3.6875 8.385 3.6875 7.395 3.6875 6.375 C2.6975 6.375 1.7075 6.375 0.6875 6.375 Z " fill="#05658C" transform="translate(259.3125,644.625)"/>
<path d="M0 0 C2.8875 -0.061875 5.775 -0.12375 8.75 -0.1875 C9.65331055 -0.21481201 10.55662109 -0.24212402 11.48730469 -0.27026367 C14.96932291 -0.30645362 17.39397202 -0.30069382 20.55078125 1.265625 C22.58654937 3.70196205 22.48694617 5.97683163 22.328125 9.0625 C21.8760202 11.73207119 20.97794501 13.16856944 19 15 C15.52674819 16.1577506 12.63932552 16.06866652 9 16 C9 18.31 9 20.62 9 23 C6.03 23 3.06 23 0 23 C0 15.41 0 7.82 0 0 Z M9 6 C9 6.99 9 7.98 9 9 C10.32 8.67 11.64 8.34 13 8 C12.67 7.34 12.34 6.68 12 6 C11.01 6 10.02 6 9 6 Z " fill="#05658C" transform="translate(660,461)"/>
<path d="M0 0 C2.97 0 5.94 0 9 0 C9 1.98 9 3.96 9 6 C10.0725 5.773125 11.145 5.54625 12.25 5.3125 C16 5 16 5 18.21875 6 C20.86142806 8.96721747 20.43254593 11.92775599 20.25 15.6875 C20.23195313 16.38939453 20.21390625 17.09128906 20.1953125 17.81445312 C20.14826213 19.54355436 20.07651873 21.27195205 20 23 C17.36 23 14.72 23 12 23 C11.67 19.7 11.34 16.4 11 13 C10.67 13 10.34 13 10 13 C9.67 16.3 9.34 19.6 9 23 C6.03 23 3.06 23 0 23 C0 15.41 0 7.82 0 0 Z " fill="#05658C" transform="translate(586,461)"/>
<path d="M0 0 C3.375 2 3.375 2 6 4 C5.125 8.75 5.125 8.75 4 11 C1.03 10.505 1.03 10.505 -2 10 C-1.484375 10.4125 -0.96875 10.825 -0.4375 11.25 C1 13 1 13 0.8125 15 C0 17 0 17 -2 20 C-3.65 19.67 -5.3 19.34 -7 19 C-6.01 19.99 -5.02 20.98 -4 22 C-5.875 26.75 -5.875 26.75 -7 29 C-10.21852831 28.36934243 -12.50801069 27.21979305 -15.25 25.4375 C-15.95640625 24.98246094 -16.6628125 24.52742187 -17.390625 24.05859375 C-17.92171875 23.70925781 -18.4528125 23.35992188 -19 23 C-18.67 21.02 -18.34 19.04 -18 17 C-17.01 16.67 -16.02 16.34 -15 16 C-14.5359375 14.5459375 -14.5359375 14.5459375 -14.0625 13.0625 C-13 10 -13 10 -10.875 8.625 C-10.25625 8.41875 -9.6375 8.2125 -9 8 C-9.061875 7.236875 -9.12375 6.47375 -9.1875 5.6875 C-9 3 -9 3 -7.875 1.1875 C-5.059158 -0.5958666 -3.28059691 -0.45027801 0 0 Z " fill="#05658C" transform="translate(876,530)"/>
<path d="M0 0 C2.97 0 5.94 0 9 0 C8.67 2.97 8.34 5.94 8 9 C7.34 9 6.68 9 6 9 C6 11.97 6 14.94 6 18 C3.69 18 1.38 18 -1 18 C-1 15.36 -1 12.72 -1 10 C-1.66 10 -2.32 10 -3 10 C-3.0825 10.763125 -3.165 11.52625 -3.25 12.3125 C-4 15 -4 15 -5.5625 16.8125 C-9.0399852 18.50665946 -12.24684253 18.52767164 -16 18 C-19 16.9375 -19 16.9375 -21 15 C-21.5 11.5 -21.5 11.5 -21 8 C-19.43420683 5.92848482 -18.41406213 5.12251277 -15.9140625 4.3828125 C-11.9215865 3.93314797 -9.657085 3.69157235 -5.9375 5.4375 C-4.9784375 6.2109375 -4.9784375 6.2109375 -4 7 C-3.67 6.34 -3.34 5.68 -3 5 C-2.34 5 -1.68 5 -1 5 C-0.67 3.35 -0.34 1.7 0 0 Z M-13 10 C-13 10.66 -13 11.32 -13 12 C-12.34 12 -11.68 12 -11 12 C-11 11.34 -11 10.68 -11 10 C-11.66 10 -12.32 10 -13 10 Z " fill="#05658C" transform="translate(528,725)"/>
<path d="M0 0 C2.42130331 3.63195496 2.21022785 5.38349348 2.125 9.6875 C2.10695313 10.86699219 2.08890625 12.04648437 2.0703125 13.26171875 C2.04710937 14.16535156 2.02390625 15.06898438 2 16 C-0.91620455 16.24901747 -3.83111077 16.47485086 -6.75 16.6875 C-7.575 16.76033203 -8.4 16.83316406 -9.25 16.90820312 C-15.42297754 17.33135078 -15.42297754 17.33135078 -18.578125 15.51953125 C-19.04734375 15.01808594 -19.5165625 14.51664062 -20 14 C-19.74438677 11.6568787 -19.40729228 9.32156597 -19 7 C-18.34 6.67 -17.68 6.34 -17 6 C-17.66 5.67 -18.32 5.34 -19 5 C-18.8125 2.625 -18.8125 2.625 -18 0 C-12.41727437 -3.44815407 -5.77760557 -2.55289548 0 0 Z " fill="#05658C" transform="translate(787,468)"/>
<path d="M0 0 C2.97 0 5.94 0 9 0 C9.66 1.98 10.32 3.96 11 6 C11.99 4.02 12.98 2.04 14 0 C16.64 0 19.28 0 22 0 C21.37665817 4.84404192 19.98705569 9.17298189 18.1875 13.6875 C17.93935547 14.35072266 17.69121094 15.01394531 17.43554688 15.69726562 C15.93086976 19.49915972 14.7365762 22.14885216 11 24 C8.421875 24.29296875 8.421875 24.29296875 5.75 24.1875 C4.85796875 24.16042969 3.9659375 24.13335937 3.046875 24.10546875 C2.37140625 24.07066406 1.6959375 24.03585937 1 24 C0.67 22.02 0.34 20.04 0 18 C1.98 18 3.96 18 6 18 C5.566875 17.03578125 5.13375 16.0715625 4.6875 15.078125 C4.12461529 13.80225299 3.56213652 12.52620183 3 11.25 C2.71382813 10.61578125 2.42765625 9.9815625 2.1328125 9.328125 C0.63993298 5.91582896 0 3.79218083 0 0 Z " fill="#05658C" transform="translate(475,431)"/>
<path d="M0 0 C3.75045863 1.87522931 6.21692667 4.76036577 8.5 8.25 C8.66886719 8.96027344 8.83773437 9.67054688 9.01171875 10.40234375 C9.17285156 11.01207031 9.33398438 11.62179687 9.5 12.25 C11.99034386 13.54660434 11.99034386 13.54660434 14.5 14.25 C15.4375 17.3125 15.4375 17.3125 15.5 21.25 C13.49011765 23.97544256 11.11122143 26.10762631 8.5 28.25 C6.03199953 27.09826645 4.45216435 26.20216435 2.5 24.25 C2.875 22.125 2.875 22.125 3.5 20.25 C2.71625 20.12625 1.9325 20.0025 1.125 19.875 C-1.5 19.25 -1.5 19.25 -3.5 17.25 C-3.11121812 14.23694043 -2.23543126 12.85314689 -0.5 10.25 C-0.9125 10.765625 -1.325 11.28125 -1.75 11.8125 C-3.5 13.25 -3.5 13.25 -5.5 13.125 C-7.70700414 12.15943569 -8.92932829 11.05627247 -10.5 9.25 C-8.77036893 4.57999611 -5.10384035 0.51038404 0 0 Z M6.5 16.25 C6.17 16.91 5.84 17.57 5.5 18.25 C6.16 18.25 6.82 18.25 7.5 18.25 C7.17 17.59 6.84 16.93 6.5 16.25 Z " fill="#05658C" transform="translate(192.5,577.75)"/>
<path d="M0 0 C6.12197929 11.89413119 6.12197929 11.89413119 5 19 C2.83194553 22.38216497 1.405988 22.898503 -2.5 23.875 C-7.1460177 24.0409292 -7.1460177 24.0409292 -10 22 C-11.41114691 19.68537489 -12.60212019 17.49866552 -13.75 15.0625 C-14.22373047 14.11213867 -14.22373047 14.11213867 -14.70703125 13.14257812 C-16.11293177 10.24861408 -17 8.25598209 -17 5 C-15.10908264 4.15557119 -13.21202485 3.32488413 -11.3125 2.5 C-10.25675781 2.0359375 -9.20101562 1.571875 -8.11328125 1.09375 C-5.14372184 0.05049199 -3.10804937 -0.23065301 0 0 Z M-6.625 11.5 C-7.07875 11.995 -7.5325 12.49 -8 13 C-7.67 13.66 -7.34 14.32 -7 15 C-5.68 14.67 -4.36 14.34 -3 14 C-3 12.68 -3 11.36 -3 10 C-5.12364481 9.77390663 -5.12364481 9.77390663 -6.625 11.5 Z " fill="#05658C" transform="translate(137,474)"/>
<path d="M0 0 C2.90077034 2.21011074 3.77627496 3.64336946 4.3671875 7.2265625 C4.49872348 9.60194758 4.45528496 11.66497415 4 14 C0.94945709 17.36611632 -2.34516966 17.95706031 -6.8125 18.25 C-10.82634263 18.20556632 -13.57668132 17.17088502 -17 15 C-18.72660813 11.54678373 -18.49047852 7.77601271 -18 4 C-13.65472936 -2.20752949 -6.77067188 -1.59706878 0 0 Z " fill="#05658C" transform="translate(540,467)"/>
<path d="M0 0 C1.99616554 1.99616554 1.40983427 5.81701963 1.5625 8.5625 C1.60568359 9.27341797 1.64886719 9.98433594 1.69335938 10.71679688 C1.79971777 12.47761912 1.90038846 14.2387832 2 16 C-0.91631827 16.27603012 -3.82989715 16.52158705 -6.75 16.75 C-7.9875 16.87181641 -7.9875 16.87181641 -9.25 16.99609375 C-15.3741043 17.44058519 -15.3741043 17.44058519 -18.5859375 15.1796875 C-20 13 -20 13 -19.875 10.375 C-19 8 -19 8 -17 6 C-17.66 5.67 -18.32 5.34 -19 5 C-18.67 3.35 -18.34 1.7 -18 0 C-11.68791187 -2.4632539 -6.19027632 -3.09513816 0 0 Z " fill="#05658C" transform="translate(459,468)"/>
<path d="M0 0 C3.89763802 1.23083306 4.24663151 1.53986454 6.0625 4.9375 C7.5286806 8.08860589 7.68894 9.82719868 6.5625 13.125 C3.6875 13.75 3.6875 13.75 0.5625 14.125 C-0.0975 13.465 -0.7575 12.805 -1.4375 12.125 C-1.4375 13.445 -1.4375 14.765 -1.4375 16.125 C-3.7635857 16.50563221 -6.09805264 16.83769945 -8.4375 17.125 C-8.7675 16.795 -9.0975 16.465 -9.4375 16.125 C-9.4375 17.115 -9.4375 18.105 -9.4375 19.125 C-11.60089673 20.43849087 -12.90674145 21.16999687 -15.46484375 20.953125 C-17.4375 20.125 -17.4375 20.125 -18.51953125 18.19921875 C-18.76058594 17.41160156 -19.00164063 16.62398437 -19.25 15.8125 C-19.50394531 15.03261719 -19.75789062 14.25273438 -20.01953125 13.44921875 C-20.47745408 10.90282542 -20.45353518 9.50088025 -19.4375 7.125 C-16.05353099 5.39983933 -12.79219989 4.24095958 -9.1875 3.0625 C-0.22854478 0.00831072 -0.22854478 0.00831072 0 0 Z M-3.4375 7.125 C-2.4375 9.125 -2.4375 9.125 -2.4375 9.125 Z " fill="#05658C" transform="translate(685.4375,693.875)"/>
<path d="M0 0 C0.66 0.28875 1.32 0.5775 2 0.875 C2.103125 1.514375 2.20625 2.15375 2.3125 2.8125 C2.6528125 3.8334375 2.6528125 3.8334375 3 4.875 C3.99 5.205 4.98 5.535 6 5.875 C6.33 7.525 6.66 9.175 7 10.875 C8.27875 11.184375 9.5575 11.49375 10.875 11.8125 C13.10101675 12.35105244 14.94739999 12.8487 17 13.875 C16.67 16.515 16.34 19.155 16 21.875 C11.25 23.875 11.25 23.875 9 23.875 C8.67 25.195 8.34 26.515 8 27.875 C6.68 28.205 5.36 28.535 4 28.875 C-0.01862464 23.63861032 -0.01862464 23.63861032 0.0625 20.3125 C1.10195384 17.60992003 2.41150751 15.29227118 4 12.875 C3.01 12.545 2.02 12.215 1 11.875 C0.34 11.215 -0.32 10.555 -1 9.875 C-2.32 10.865 -3.64 11.855 -5 12.875 C-7.99324263 11.7774777 -8.84610901 11.19817108 -10.25 8.25 C-10.4975 7.46625 -10.745 6.6825 -11 5.875 C-3.9452954 -0.16438731 -3.9452954 -0.16438731 0 0 Z " fill="#05658C" transform="translate(175,554.125)"/>
<path d="M0 0 C3.1875 1.375 3.1875 1.375 5 4 C5.56409169 7.41247547 5.68070106 10.6021672 5 14 C3.08770952 16.48486583 2.04951938 16.98349354 -1 18 C-6.44232168 18.52996391 -10.53077792 18.49157975 -15 15 C-16.65094122 13.34905878 -16.28867693 11.45514063 -16.375 9.1875 C-16.30899792 5.63861866 -16.24501714 4.3548524 -14.1875 1.375 C-9.42225347 -0.68059654 -5.10605576 -0.71959407 0 0 Z " fill="#05658C" transform="translate(553,431)"/>
<path d="M0 0 C2.97 0 5.94 0 9 0 C9 3.63 9 7.26 9 11 C9.66 11 10.32 11 11 11 C11 7.37 11 3.74 11 0 C13.97 0 16.94 0 20 0 C20 5.61 20 11.22 20 17 C17.256875 17.20625 14.51375 17.4125 11.6875 17.625 C10.39718872 17.73062256 10.39718872 17.73062256 9.08081055 17.83837891 C8.39801025 17.88397949 7.71520996 17.92958008 7.01171875 17.9765625 C6.31522217 18.02893066 5.61872559 18.08129883 4.90112305 18.13525391 C3 18 3 18 0 16 C-0.22107787 13.2114711 -0.28107535 10.65346819 -0.1875 7.875 C-0.17396484 7.12089844 -0.16042969 6.36679687 -0.14648438 5.58984375 C-0.11109985 3.72625873 -0.05729167 1.86304022 0 0 Z " fill="#05658C" transform="translate(782,431)"/>
<path d="M0 0 C2.28715192 2.8589399 2.37562815 5.26821643 2.5 8.875 C1.74209556 12.58031058 0.96733323 13.55982177 -2.1875 15.6875 C-7.20683506 17.48688427 -10.79316494 17.48688427 -15.8125 15.6875 C-18.94207384 13.57685717 -19.73208884 12.54390887 -20.5 8.875 C-20.35184071 5.24509749 -19.93802383 3.43385799 -17.6875 0.5625 C-12.56897915 -3.38607322 -5.66531343 -2.54939104 0 0 Z M-9.5 3.875 C-10.16 4.535 -10.82 5.195 -11.5 5.875 C-11.1814823 7.98320797 -11.1814823 7.98320797 -10.5 9.875 C-9.51 9.875 -8.52 9.875 -7.5 9.875 C-7.17 8.555 -6.84 7.235 -6.5 5.875 C-7.49 5.215 -8.48 4.555 -9.5 3.875 Z " fill="#05658C" transform="translate(721.5,468.125)"/>
<path d="M0 0 C3.69876091 1.37287342 6.9514476 3.06355453 10.3125 5.125 C11.19550781 5.66382813 12.07851563 6.20265625 12.98828125 6.7578125 C13.98408203 7.37269531 13.98408203 7.37269531 15 8 C14.34 9.65 13.68 11.3 13 13 C12.34 13 11.68 13 11 13 C10.81824219 13.71027344 10.63648438 14.42054688 10.44921875 15.15234375 C10.19785156 16.07144531 9.94648438 16.99054687 9.6875 17.9375 C9.44386719 18.85402344 9.20023437 19.77054688 8.94921875 20.71484375 C8.63597656 21.46894531 8.32273437 22.22304688 8 23 C7.01 23.33 6.02 23.66 5 24 C2.65717548 22.76585956 0.51707416 21.50753507 -1.6875 20.0625 C-2.29400391 19.67642578 -2.90050781 19.29035156 -3.52539062 18.89257812 C-5.02280265 17.93753581 -6.51219401 16.96993914 -8 16 C-7.50506533 11.24583878 -6.27876594 8.44779417 -3.4375 4.625 C-2.79683594 3.75101563 -2.15617187 2.87703125 -1.49609375 1.9765625 C-1.00238281 1.32429687 -0.50867188 0.67203125 0 0 Z " fill="#05658C" transform="translate(296,664)"/>
<path d="M0 0 C1.546875 -0.02900391 1.546875 -0.02900391 3.125 -0.05859375 C6.69005181 0.55657144 7.88173865 1.54016656 10 4.4375 C10 5.7575 10 7.0775 10 8.4375 C10.04125 9.63375 10.0825 10.83 10.125 12.0625 C10 15.4375 10 15.4375 8 17.4375 C3.27683052 19.25410365 -2.0992828 18.88234871 -6.9375 17.75 C-9 16.4375 -9 16.4375 -9.8125 13.8125 C-9.874375 13.02875 -9.93625 12.245 -10 11.4375 C-9.34 11.1075 -8.68 10.7775 -8 10.4375 C-8.66 9.7775 -9.32 9.1175 -10 8.4375 C-10.375 6 -10.375 6 -10 3.4375 C-6.8556952 0.32299903 -4.33884199 0.00542355 0 0 Z " fill="#05658C" transform="translate(892,430.5625)"/>
<path d="M0 0 C0.85464844 -0.01417969 1.70929688 -0.02835937 2.58984375 -0.04296875 C5.23601559 0.20367286 6.81874066 0.78950361 9.0625 2.1875 C11.3645949 5.41043286 11.53760654 8.30746324 11.0625 12.1875 C8.91159549 15.52511045 7.85837201 16.92220933 4.0625 18.1875 C-1.57916944 18.55744554 -5.0208458 18.30537827 -9.9375 15.1875 C-11.53001643 12.00246713 -11.32879761 8.6542595 -10.9375 5.1875 C-8.35916365 0.39916106 -5.1381778 0.03863292 0 0 Z M-0.9375 6.1875 C-1.2675 7.8375 -1.5975 9.4875 -1.9375 11.1875 C-0.6175 11.1875 0.7025 11.1875 2.0625 11.1875 C1.7325 9.5375 1.4025 7.8875 1.0625 6.1875 C0.4025 6.1875 -0.2575 6.1875 -0.9375 6.1875 Z " fill="#05658C" transform="translate(416.9375,430.8125)"/>
<path d="M0 0 C4.51315789 2.02631579 4.51315789 2.02631579 6 5 C6.58203713 12.21726041 6.58203713 12.21726041 4.1875 15.4375 C0.20757504 18.28030354 -3.22289602 18.32387146 -8 18 C-11.27191292 16.64184747 -13.49895506 15.50104494 -16 13 C-16.68767908 5.89398281 -16.68767908 5.89398281 -14.125 2.5625 C-9.65159945 -0.72676511 -5.41162143 -0.49351265 0 0 Z M-6 6 C-6.33 7.32 -6.66 8.64 -7 10 C-5.515 10.99 -5.515 10.99 -4 12 C-3.67 10.35 -3.34 8.7 -3 7 C-3.99 6.67 -4.98 6.34 -6 6 Z " fill="#05658C" transform="translate(850,431)"/>
<path d="M0 0 C0.86882813 0.07863281 1.73765625 0.15726562 2.6328125 0.23828125 C4.875 0.6875 4.875 0.6875 6.875 2.6875 C7.39453125 5.40234375 7.39453125 5.40234375 7.6875 8.625 C7.79707031 9.68589844 7.90664063 10.74679687 8.01953125 11.83984375 C7.875 14.6875 7.875 14.6875 6.57421875 16.50390625 C2.67852493 19.2174585 -1.5691925 19.02496722 -6.125 18.6875 C-9.0625 18 -9.0625 18 -11.125 16.6875 C-11.9375 14.0625 -11.9375 14.0625 -12.125 11.6875 C-11.465 11.3575 -10.805 11.0275 -10.125 10.6875 C-10.455 10.3575 -10.785 10.0275 -11.125 9.6875 C-11.3125 6.25 -11.3125 6.25 -11.125 2.6875 C-7.75627465 -0.68122535 -4.57591933 -0.45759193 0 0 Z " fill="#05658C" transform="translate(575.125,466.3125)"/>
<path d="M0 0 C4.1146875 -0.0928125 4.1146875 -0.0928125 8.3125 -0.1875 C9.60281128 -0.22846802 9.60281128 -0.22846802 10.91918945 -0.27026367 C11.60198975 -0.27775635 12.28479004 -0.28524902 12.98828125 -0.29296875 C14.03302612 -0.31653442 14.03302612 -0.31653442 15.09887695 -0.34057617 C17.61651909 0.11044615 18.48045206 0.97237516 20 3 C20.29296875 6.35546875 20.29296875 6.35546875 20.1875 10.1875 C20.16042969 11.45980469 20.13335938 12.73210937 20.10546875 14.04296875 C20.07066406 15.01878906 20.03585937 15.99460937 20 17 C17.03 17 14.06 17 11 17 C11 13.7 11 10.4 11 7 C10.34 7 9.68 7 9 7 C9 10.3 9 13.6 9 17 C6.03 17 3.06 17 0 17 C0 11.39 0 5.78 0 0 Z " fill="#05658C" transform="translate(690,431)"/>
<path d="M0 0 C4.1146875 -0.0928125 4.1146875 -0.0928125 8.3125 -0.1875 C9.60281128 -0.22846802 9.60281128 -0.22846802 10.91918945 -0.27026367 C11.60198975 -0.27775635 12.28479004 -0.28524902 12.98828125 -0.29296875 C14.03302612 -0.31653442 14.03302612 -0.31653442 15.09887695 -0.34057617 C17.61651909 0.11044615 18.48045206 0.97237516 20 3 C20.29296875 6.35546875 20.29296875 6.35546875 20.1875 10.1875 C20.16042969 11.45980469 20.13335937 12.73210937 20.10546875 14.04296875 C20.07066406 15.01878906 20.03585937 15.99460937 20 17 C17.03 17 14.06 17 11 17 C11 13.7 11 10.4 11 7 C10.34 7 9.68 7 9 7 C9 10.3 9 13.6 9 17 C6.03 17 3.06 17 0 17 C0 11.39 0 5.78 0 0 Z " fill="#05658C" transform="translate(383,431)"/>
<path d="M0 0 C2.32824183 2.47068701 2.26718316 4.24553702 2.203125 7.56054688 C2.16960938 8.25083984 2.13609375 8.94113281 2.1015625 9.65234375 C2.08351563 10.35423828 2.06546875 11.05613281 2.046875 11.77929688 C1.99982463 13.50839811 1.92808123 15.2367958 1.8515625 16.96484375 C-1.1184375 16.96484375 -4.0884375 16.96484375 -7.1484375 16.96484375 C-7.4784375 13.66484375 -7.8084375 10.36484375 -8.1484375 6.96484375 C-8.4784375 6.96484375 -8.8084375 6.96484375 -9.1484375 6.96484375 C-9.4784375 10.26484375 -9.8084375 13.56484375 -10.1484375 16.96484375 C-12.7884375 16.96484375 -15.4284375 16.96484375 -18.1484375 16.96484375 C-18.1484375 11.35484375 -18.1484375 5.74484375 -18.1484375 -0.03515625 C-3.38542209 -1.63115792 -3.38542209 -1.63115792 0 0 Z " fill="#05658C" transform="translate(517.1484375,467.03515625)"/>
<path d="M0 0 C4.60705199 1.49051682 7.46396484 3.78542259 11 7 C12.47896861 9.95793723 12.4355582 11.70220224 12 15 C10.40449969 17.84340948 8.61531607 20.0427678 6 22 C2.125 22.4375 2.125 22.4375 -1 22 C-1 21.01 -1 20.02 -1 19 C-1.94875 18.896875 -2.8975 18.79375 -3.875 18.6875 C-7 18 -7 18 -9 15 C-8.79889113 11.78225805 -8.54254362 9.7076656 -6.5625 7.125 C-5 6 -5 6 -3 6 C-2.814375 5.071875 -2.814375 5.071875 -2.625 4.125 C-2 2 -2 2 0 0 Z M-1 10 C-1 10.66 -1 11.32 -1 12 C-0.34 12 0.32 12 1 12 C1 11.34 1 10.68 1 10 C0.34 10 -0.32 10 -1 10 Z " fill="#05658C" transform="translate(842,571)"/>
<path d="M0 0 C2.743125 -0.04125 5.48625 -0.0825 8.3125 -0.125 C9.60281128 -0.15231201 9.60281128 -0.15231201 10.91918945 -0.18017578 C11.60198975 -0.1851709 12.28479004 -0.19016602 12.98828125 -0.1953125 C13.68477783 -0.20578613 14.38127441 -0.21625977 15.09887695 -0.22705078 C17 0 17 0 20 2 C20.22137393 4.62697064 20.28162025 7.00893964 20.1875 9.625 C20.16719727 10.68460937 20.16719727 10.68460937 20.14648438 11.765625 C20.1111104 13.51074128 20.05730221 15.25546608 20 17 C17.36 17 14.72 17 12 17 C11.92652344 16.04287109 11.92652344 16.04287109 11.8515625 15.06640625 C11.77679687 14.24011719 11.70203125 13.41382813 11.625 12.5625 C11.55539062 11.73878906 11.48578125 10.91507812 11.4140625 10.06640625 C11.20910156 9.04353516 11.20910156 9.04353516 11 8 C10.34 7.67 9.68 7.34 9 7 C9 10.3 9 13.6 9 17 C6.03 17 3.06 17 0 17 C0 11.39 0 5.78 0 0 Z " fill="#05658C" transform="translate(859,431)"/>
<path d="M0 0 C1.051875 -0.00515625 2.10375 -0.0103125 3.1875 -0.015625 C6 0.25 6 0.25 9 2.25 C9.6171875 4.96484375 9.6171875 4.96484375 9.875 8.1875 C10.02582031 9.77884766 10.02582031 9.77884766 10.1796875 11.40234375 C10 14.25 10 14.25 8.6953125 16.06640625 C4.80399267 18.78315719 0.55317618 18.58727231 -4 18.25 C-6.9375 17.5625 -6.9375 17.5625 -9 16.25 C-9.8125 13.625 -9.8125 13.625 -10 11.25 C-9.34 10.92 -8.68 10.59 -8 10.25 C-8.33 9.92 -8.66 9.59 -9 9.25 C-9.25 5.8125 -9.25 5.8125 -9 2.25 C-5.53767506 -0.05821663 -4.08201684 -0.02000989 0 0 Z " fill="#05658C" transform="translate(723,430.75)"/>
<path d="M0 0 C2.743125 -0.0825 5.48625 -0.165 8.3125 -0.25 C9.60281128 -0.30462402 9.60281128 -0.30462402 10.91918945 -0.36035156 C16.43781869 -0.44109611 16.43781869 -0.44109611 19.03125 1.59375 C20.31080851 4.77200824 20.29000633 7.33312231 20.1875 10.75 C20.16042969 11.92046875 20.13335938 13.0909375 20.10546875 14.296875 C20.07066406 15.18890625 20.03585937 16.0809375 20 17 C17.03 17 14.06 17 11 17 C11 13.7 11 10.4 11 7 C10.01 7.495 10.01 7.495 9 8 C8.53348793 10.12576782 8.53348793 10.12576782 8.375 12.5625 C8.30023437 13.38878906 8.22546875 14.21507812 8.1484375 15.06640625 C8.09945312 15.70449219 8.05046875 16.34257812 8 17 C5.36 17 2.72 17 0 17 C0 11.39 0 5.78 0 0 Z " fill="#05658C" transform="translate(615,431)"/>
<path d="M0 0 C-0.04125 1.19625 -0.0825 2.3925 -0.125 3.625 C-0.13850228 7.44614482 0.69016463 10.39795273 2 14 C2 15.32 2 16.64 2 18 C-4.02596573 19.0712828 -9.88909517 19.09945415 -16 19 C-16.90413673 15.16275828 -17.10576898 11.62497726 -17.0625 7.6875 C-17.05347656 6.61886719 -17.04445313 5.55023437 -17.03515625 4.44921875 C-17.02355469 3.64097656 -17.01195312 2.83273437 -17 2 C-14.72954771 1.66408104 -12.45862367 1.33134935 -10.1875 1 C-8.29064453 0.7215625 -8.29064453 0.7215625 -6.35546875 0.4375 C-3 0 -3 0 0 0 Z " fill="#05658C" transform="translate(567,722)"/>
<path d="M0 0 C3.11937969 1.37252707 4.4897715 1.979543 6 5 C6.68288206 11.94263424 6.68288206 11.94263424 4.0625 16 C-0.07267643 18.70052338 -3.1915149 18.79437188 -8 18 C-13.6 15.8 -13.6 15.8 -15 13 C-15.49167501 8.82479257 -15.62597924 5.22214994 -13.6875 1.4375 C-9.29646545 -0.9111929 -4.86394891 -0.61249727 0 0 Z M-5 5 C-5.99 5.99 -6.98 6.98 -8 8 C-7.34 9.32 -6.68 10.64 -6 12 C-4.68 11.67 -3.36 11.34 -2 11 C-2 9.35 -2 7.7 -2 6 C-2.99 5.67 -3.98 5.34 -5 5 Z " fill="#05658C" transform="translate(417,713)"/>
<path d="M0 0 C1.640625 2.29296875 1.640625 2.29296875 3.25 5.1875 C3.79140625 6.12980469 4.3328125 7.07210937 4.890625 8.04296875 C6.20396031 11.54365476 6.00500999 13.43448719 5 17 C3.3125 18.9375 3.3125 18.9375 1 20 C-2.24162743 19.86768868 -4.24360053 19.55469295 -6.875 17.625 C-8 16 -8 16 -8 13 C-9.98 13.33 -11.96 13.66 -14 14 C-15.25510215 11.93277292 -16.02124149 10.544453 -15.92578125 8.09765625 C-14.50010235 4.86732051 -12.14523252 3.90765641 -9.125 2.1875 C-8.05507812 1.56230469 -6.98515625 0.93710937 -5.8828125 0.29296875 C-3 -1 -3 -1 0 0 Z M-3 9 C-3 9.99 -3 10.98 -3 12 C-2.34 11.34 -1.68 10.68 -1 10 C-1.66 9.67 -2.32 9.34 -3 9 Z " fill="#05658C" transform="translate(154,518)"/>
<path d="M0 0 C5.37305699 -0.44041451 5.37305699 -0.44041451 8 0 C10 2.5 10 2.5 11 5 C11.66 3.35 12.32 1.7 13 0 C15.97 0 18.94 0 22 0 C21.46105575 4.59808129 20.23428472 7.86784369 17.9375 11.875 C17.38964844 12.84179688 16.84179688 13.80859375 16.27734375 14.8046875 C15.85582031 15.52914063 15.43429687 16.25359375 15 17 C12.03 17 9.06 17 6 17 C4.99063464 14.921188 3.99282154 12.8367638 3 10.75 C2.443125 9.58984375 1.88625 8.4296875 1.3125 7.234375 C0 4 0 4 0 0 Z " fill="#05658C" transform="translate(578,431)"/>
<path d="M0 0 C0 1.98 0 3.96 0 6 C1.32 6 2.64 6 4 6 C4 7.98 4 9.96 4 12 C2.68 12 1.36 12 0 12 C0 13.65 0 15.3 0 17 C1.32 17 2.64 17 4 17 C4.04254356 18.99954746 4.04080783 21.00041636 4 23 C3 24 3 24 -0.8125 24.3125 C-3.78617685 24.25377389 -4.87751147 24.07349312 -7.5 22.5 C-9.68405234 18.85991277 -9.28023018 16.20345267 -9 12 C-9.66 12 -10.32 12 -11 12 C-11 10.02 -11 8.04 -11 6 C-10.34 6 -9.68 6 -9 6 C-8.938125 5.38125 -8.87625 4.7625 -8.8125 4.125 C-8 2 -8 2 -5.625 0.75 C-3 0 -3 0 0 0 Z " fill="#05658C" transform="translate(492,461)"/>
<path d="M0 0 C5.98994261 0.11744986 5.98994261 0.11744986 8.578125 2.37890625 C10.93867068 5.41098647 11.95164633 7.77032006 12.75 11.5625 C11.81517458 15.84711653 10.19948396 17.28590232 6.921875 20.03125 C5 21 5 21 3.00390625 21.015625 C-0.05872724 19.46341309 -1.11084598 17.1875922 -2.8125 14.25 C-3.75029297 12.67992187 -3.75029297 12.67992187 -4.70703125 11.078125 C-6.10759456 7.74385343 -6.11844736 6.37408702 -5 3 C-3.35 2.67 -1.7 2.34 0 2 C0 1.34 0 0.68 0 0 Z " fill="#05658C" transform="translate(159,537)"/>
<path d="M0 0 C0 1.65 0 3.3 0 5 C1.32 5 2.64 5 4 5 C4 6.98 4 8.96 4 11 C2.68 11 1.36 11 0 11 C0 12.65 0 14.3 0 16 C0.99 16 1.98 16 3 16 C3.33 17.98 3.66 19.96 4 22 C0.87293041 23.5635348 -2.57982443 23.39958487 -6 23 C-6.99 22.34 -7.98 21.68 -9 21 C-9.29296875 18.6171875 -9.29296875 18.6171875 -9.1875 15.875 C-9.16042969 14.96492188 -9.13335938 14.05484375 -9.10546875 13.1171875 C-9.07066406 12.41851562 -9.03585937 11.71984375 -9 11 C-9.66 11 -10.32 11 -11 11 C-11 9.02 -11 7.04 -11 5 C-10.34 5 -9.68 5 -9 5 C-9 4.01 -9 3.02 -9 2 C-5.62902617 0.50178941 -3.79557881 0 0 0 Z " fill="#05658C" transform="translate(816,426)"/>
<path d="M0 0 C4.79959781 0.27167535 8.06062938 1.25437805 12 4 C11.45276317 7.37462715 10.9451 9.08235 9 12 C8.236875 11.690625 7.47375 11.38125 6.6875 11.0625 C4.81210323 10.32106407 2.91315348 9.63771783 1 9 C1 9.66 1 10.32 1 11 C2.98 11.66 4.96 12.32 7 13 C6.67 15.31 6.34 17.62 6 20 C3.34501768 21.0169313 2.30844625 21.13022151 -0.359375 20.00390625 C-1.14828125 19.52824219 -1.9371875 19.05257813 -2.75 18.5625 C-3.54921875 18.08941406 -4.3484375 17.61632812 -5.171875 17.12890625 C-5.77515625 16.75636719 -6.3784375 16.38382812 -7 16 C-6.40012531 10.00125305 -4.30477102 4.30477102 0 0 Z " fill="#05658C" transform="translate(891,491)"/>
<path d="M0 0 C0 1.65 0 3.3 0 5 C1.32 5 2.64 5 4 5 C4 6.98 4 8.96 4 11 C2.68 11 1.36 11 0 11 C0 12.65 0 14.3 0 16 C1.32 16 2.64 16 4 16 C4.04254356 17.99954746 4.04080783 20.00041636 4 22 C2.12356239 23.87643761 -0.49805701 23.17984987 -2.9921875 23.23046875 C-5 23 -5 23 -8 21 C-8.29296875 18.6171875 -8.29296875 18.6171875 -8.1875 15.875 C-8.16042969 14.96492188 -8.13335938 14.05484375 -8.10546875 13.1171875 C-8.07066406 12.41851562 -8.03585937 11.71984375 -8 11 C-8.99 11 -9.98 11 -11 11 C-11 9.02 -11 7.04 -11 5 C-10.01 5 -9.02 5 -8 5 C-8 4.01 -8 3.02 -8 2 C-4.91190305 0.23537317 -3.76687864 0 0 0 Z " fill="#05658C" transform="translate(775,426)"/>
<path d="M0 0 C0.66 0.33 1.32 0.66 2 1 C2.38434943 5.80436782 2.47968712 9.09024857 0.1875 13.4375 C-2.42298392 16.49549545 -3.95193177 17.89082623 -8 18.3125 C-11 18 -11 18 -12.875 16.9375 C-14.65886119 13.86529462 -14.35458787 11.48678068 -14 8 C-11.03761069 0.2977878 -8.13749385 -1.80833197 0 0 Z " fill="#05658C" transform="translate(889,512)"/>
<path d="M0 0 C0 1.65 0 3.3 0 5 C1.32 5 2.64 5 4 5 C4 6.98 4 8.96 4 11 C2.68 11 1.36 11 0 11 C0 12.65 0 14.3 0 16 C1.32 16.33 2.64 16.66 4 17 C4 18.65 4 20.3 4 22 C0.98131566 23.50934217 -1.67297229 23.17510672 -5 23 C-5.99 22.34 -6.98 21.68 -8 21 C-8.29296875 18.6171875 -8.29296875 18.6171875 -8.1875 15.875 C-8.16042969 14.96492188 -8.13335938 14.05484375 -8.10546875 13.1171875 C-8.07066406 12.41851562 -8.03585937 11.71984375 -8 11 C-8.99 11 -9.98 11 -11 11 C-11 9.02 -11 7.04 -11 5 C-10.01 5 -9.02 5 -8 5 C-8 4.01 -8 3.02 -8 2 C-4.91190305 0.23537317 -3.76687864 0 0 0 Z " fill="#05658C" transform="translate(746,426)"/>
<path d="M0 0 C0 1.65 0 3.3 0 5 C1.32 5 2.64 5 4 5 C4 6.98 4 8.96 4 11 C2.68 11 1.36 11 0 11 C0 12.65 0 14.3 0 16 C1.32 16.33 2.64 16.66 4 17 C4 18.65 4 20.3 4 22 C0.98131566 23.50934217 -1.67297229 23.17510672 -5 23 C-5.99 22.34 -6.98 21.68 -8 21 C-8.29296875 18.6171875 -8.29296875 18.6171875 -8.1875 15.875 C-8.16042969 14.96492188 -8.13335937 14.05484375 -8.10546875 13.1171875 C-8.07066406 12.41851562 -8.03585937 11.71984375 -8 11 C-8.99 11 -9.98 11 -11 11 C-11 9.02 -11 7.04 -11 5 C-10.01 5 -9.02 5 -8 5 C-8 4.01 -8 3.02 -8 2 C-4.91190305 0.23537317 -3.76687864 0 0 0 Z " fill="#05658C" transform="translate(470,426)"/>
<path d="M0 0 C6.93706294 -0.78321678 6.93706294 -0.78321678 10.375 1.75 C13.67223865 6.31540736 14.52551464 9.21933901 14 15 C12.5179137 17.34013626 11.24223167 17.88561282 8.75 19.0625 C4.88100751 18.97456835 3.26011183 17.15470885 0.453125 14.640625 C-2.603189 11.18994791 -2.23472528 7.38153855 -2 3 C-1.34 2.01 -0.68 1.02 0 0 Z " fill="#05658C" transform="translate(135,500)"/>
<path d="M0 0 C2.41928939 1.69241769 4.4929021 3.44321135 6 6 C5.66015625 8.203125 5.66015625 8.203125 5 10 C4.34 10 3.68 10 3 10 C3 10.66 3 11.32 3 12 C2.01 12 1.02 12 0 12 C-0.1546875 12.928125 -0.1546875 12.928125 -0.3125 13.875 C-1 16 -1 16 -4 18 C-6.5625 18.25 -6.5625 18.25 -9 18 C-9.66 17.34 -10.32 16.68 -11 16 C-11 15.01 -11 14.02 -11 13 C-11.66 13 -12.32 13 -13 13 C-13.4786191 9.58129212 -13.79541019 7.06285246 -11.65234375 4.19921875 C-8.00196961 0.83766542 -5.09525086 -1.30091511 0 0 Z " fill="#05658C" transform="translate(805,618)"/>
<path d="M0 0 C2.75 1.9375 2.75 1.9375 5 4 C5.66 4.33 6.32 4.66 7 5 C6.8125 6.875 6.8125 6.875 6 9 C5.195625 9.309375 4.39125 9.61875 3.5625 9.9375 C0.77226367 10.75905665 0.77226367 10.75905665 -0.1875 13.5 C-0.455625 14.325 -0.72375 15.15 -1 16 C-3 18 -3 18 -6.125 18.125 C-7.548125 18.063125 -7.548125 18.063125 -9 18 C-9.33 16.35 -9.66 14.7 -10 13 C-10.99 12.67 -11.98 12.34 -13 12 C-12.54726428 7.133091 -11.35474936 4.5580675 -8 1 C-5.14675563 -0.42662219 -3.16545451 -0.31033868 0 0 Z " fill="#05658C" transform="translate(833,589)"/>
<path d="M0 0 C3.375 0.25 3.375 0.25 7 1 C8.4375 3.0625 8.4375 3.0625 9 5 C9.33 4.34 9.66 3.68 10 3 C12.64 3.33 15.28 3.66 18 4 C17.52406444 8.28342007 15.05238315 10.15573389 12 13 C10.8553125 14.3921875 10.8553125 14.3921875 9.6875 15.8125 C5.87799039 18.91326364 3.82652024 18.4670826 -1 18 C-1.99 17.67 -2.98 17.34 -4 17 C-4 15.35 -4 13.7 -4 12 C-1 11 -1 11 2 12 C1.67 10.7625 1.34 9.525 1 8.25 C0.20108841 5.25408155 0 3.19892281 0 0 Z " fill="#05658C" transform="translate(375,707)"/>
<path d="M0 0 C1.9375 0.375 1.9375 0.375 4 1 C5 3 5 3 6 5 C7.98045559 5.66179847 7.98045559 5.66179847 10 6 C12 8 12 8 12.5 10.6875 C11.79525666 15.3564246 9.25280305 17.72783503 6 21 C3.5625 20.3125 3.5625 20.3125 1 19 C0.0625 16.5625 0.0625 16.5625 0 14 C0.66 13.01 1.32 12.02 2 11 C1.01 11.99 0.02 12.98 -1 14 C-3.4375 13.25 -3.4375 13.25 -6 12 C-6.875 10.1875 -6.875 10.1875 -7 8 C-5.56640625 5.859375 -5.56640625 5.859375 -3.5625 3.75 C-2.57443359 2.69039062 -2.57443359 2.69039062 -1.56640625 1.609375 C-1.04949219 1.07828125 -0.53257812 0.5471875 0 0 Z " fill="#05658C" transform="translate(224,614)"/>
<path d="M0 0 C2.4334943 1.66559166 4.49587626 3.44825701 6 6 C5.69240208 8.97531076 5.15377512 9.84622488 3 12 C0.73725212 11.64644564 -0.95088852 11.02455574 -3 10 C-2.01 10.99 -1.02 11.98 0 13 C-1.15173355 15.46800047 -2.04783565 17.04783565 -4 19 C-8.03796936 18.57235355 -10.15881906 16.46194766 -12.859375 13.625 C-14 12 -14 12 -14.0625 9.25 C-13 7 -13 7 -10 5 C-9.67 4.01 -9.34 3.02 -9 2 C-5.44999856 -0.36666763 -4.18142922 -0.65591047 0 0 Z " fill="#05658C" transform="translate(819,604)"/>
<path d="M0 0 C1.67013418 0.65793165 3.3357865 1.32723284 5 2 C6.85625 2.5878125 6.85625 2.5878125 8.75 3.1875 C12 5 12 5 13.1875 8.25 C12.94972143 13.00557137 11.63311533 15.09022269 9 19 C4.25 18.125 4.25 18.125 2 17 C2 15.68 2 14.36 2 13 C1.4225 13.37125 0.845 13.7425 0.25 14.125 C-2 15 -2 15 -4.25 14.125 C-4.8275 13.75375 -5.405 13.3825 -6 13 C-5.49890261 7.73847744 -3.79035827 3.79035827 0 0 Z " fill="#05658C" transform="translate(312,678)"/>
<path d="M0 0 C4.07689281 0.24776697 6.25480832 1.60533282 9.125 4.5625 C10.73225635 7.77701269 10.18248185 10.99862536 10.125 14.5625 C9.135 14.8925 8.145 15.2225 7.125 15.5625 C7.125 16.2225 7.125 16.8825 7.125 17.5625 C-0.0200104 17.19919439 -0.0200104 17.19919439 -3.8125 14.375 C-6.13657361 11.20580871 -6.875 9.48411667 -6.875 5.5625 C-5.44399213 1.17407586 -4.624805 0.67134266 0 0 Z " fill="#05658C" transform="translate(210.875,601.4375)"/>
<path d="M0 0 C3.1875 0.625 3.1875 0.625 4.7265625 2.2734375 C8.27490744 7.60586648 8.27490744 7.60586648 8.00390625 10.765625 C7.1875 12.625 7.1875 12.625 4.1875 14.625 C3.1975 14.625 2.2075 14.625 1.1875 14.625 C0.8575 14.295 0.5275 13.965 0.1875 13.625 C0.1875 14.615 0.1875 15.605 0.1875 16.625 C-2.45988916 18.0856285 -3.70698334 18.625 -6.8125 18.625 C-9.65717534 15.47553802 -11.71643089 12.06603669 -12 7.8125 C-10.29554333 4.6727114 -8.03064375 4.00420447 -4.8125 2.625 C-2.8125 0.625 -2.8125 0.625 0 0 Z " fill="#05658C" transform="translate(719.8125,676.375)"/>
<path d="M0 0 C2 2 2 2 2.375 5.25 C1.93501694 9.64983056 0.8182654 11.63373855 -2 15 C-4.65517449 17.03563378 -5.74525457 17.02037963 -9.125 16.75 C-12 16 -12 16 -14 14 C-14.77613478 7.34741615 -14.77613478 7.34741615 -12.94921875 4.17578125 C-8.64942718 -1.06260789 -6.51185448 -1.27911427 0 0 Z " fill="#05658C" transform="translate(861,557)"/>
<path d="M0 0 C3.2105836 3.53164196 3.54501906 7.35919443 4 12 C1.69 12.33 -0.62 12.66 -3 13 C-3.66 11.02 -4.32 9.04 -5 7 C-5 7.99 -5 8.98 -5 10 C-5 11.66666667 -5 13.33333333 -5 15 C-7.31 15.33 -9.62 15.66 -12 16 C-15.42857143 7.57142857 -15.42857143 7.57142857 -15 3 C-9.86837702 0.83931664 -5.66450751 -0.8885502 0 0 Z " fill="#05658C" transform="translate(662,705)"/>
<path d="M0 0 C1.91976336 2.18131151 3.48218245 4.52628033 5 7 C4.3125 8.9375 4.3125 8.9375 3 11 C0.375 11.75 0.375 11.75 -2 12 C-2 12.66 -2 13.32 -2 14 C-5.44107266 16.29404844 -6.96839809 16.26293056 -11 16 C-12 15 -12 15 -12.0625 12.4375 C-12.041875 11.633125 -12.02125 10.82875 -12 10 C-12.66 10 -13.32 10 -14 10 C-14.375 7.8125 -14.375 7.8125 -14 5 C-9.66955324 0.76578539 -6.05391748 -2.30625428 0 0 Z " fill="#05658C" transform="translate(752,661)"/>
<path d="M0 0 C2.625 1.5 2.625 1.5 4 4 C4.48873449 6.90940767 4.33977449 8.99056884 4 12 C0.79375113 14.13749925 -0.22458103 14.29574999 -3.9375 14.3125 C-4.79214844 14.32925781 -5.64679688 14.34601562 -6.52734375 14.36328125 C-9.52682339 13.92259941 -10.87497373 13.14928457 -13 11 C-13.49609375 9.0625 -13.49609375 9.0625 -13.4375 7 C-13.43621094 6.319375 -13.43492187 5.63875 -13.43359375 4.9375 C-11.95704985 -1.66038988 -5.40973659 -0.77028983 0 0 Z " fill="#05658C" transform="translate(491,728)"/>
<path d="M0 0 C0.94669302 4.82813441 1.01925846 7.53759295 -1 12 C-2.91541138 12.10841951 -4.83259773 12.18578079 -6.75 12.25 C-8.35101563 12.31960938 -8.35101563 12.31960938 -9.984375 12.390625 C-13 12 -13 12 -15.390625 10.2421875 C-17.1908205 7.73414813 -17.45593254 6.87275646 -17 3.875 C-16.32162045 0.29688042 -16.32162045 0.29688042 -14.375 -1.5 C-9.12740434 -2.60475698 -4.83588814 -2.34467304 0 0 Z M-8 4 C-8.33 4.99 -8.66 5.98 -9 7 C-8.01 6.67 -7.02 6.34 -6 6 C-6.66 5.34 -7.32 4.68 -8 4 Z " fill="#05658C" transform="translate(475,728)"/>
<path d="M0 0 C2.10827055 3.16240582 2.33817465 4.50657469 2.625 8.1875 C2.69976563 9.08855469 2.77453125 9.98960937 2.8515625 10.91796875 C2.90054688 11.60503906 2.94953125 12.29210937 3 13 C0.69 13.33 -1.62 13.66 -4 14 C-5.35439668 11.29120665 -5.06501451 8.99066732 -5 6 C-5.66 6 -6.32 6 -7 6 C-6.67 8.97 -6.34 11.94 -6 15 C-8.31 15 -10.62 15 -13 15 C-13.66 10.71 -14.32 6.42 -15 2 C-9.88113844 0.56312658 -5.36959974 -0.53695997 0 0 Z " fill="#05658C" transform="translate(585,724)"/>
<path d="M0 0 C4.44727933 0.08593776 7.47373429 1.09873429 10.6875 4.3125 C10.96064815 10.04861111 10.96064815 10.04861111 10.6875 12.3125 C8.31589852 14.68410148 7.68128878 14.63233352 4.4375 14.6875 C-0.18640328 14.55304078 -2.98741095 13.72284775 -6.3125 10.3125 C-6.95967822 7.36230018 -6.71019217 5.39461436 -6.3125 2.3125 C-3.9183839 -0.0816161 -3.27463689 0.01651077 0 0 Z " fill="#05658C" transform="translate(331.3125,688.6875)"/>
<path d="M0 0 C2.97 0 5.94 0 9 0 C9 7.59 9 15.18 9 23 C6.03 23 3.06 23 0 23 C0 15.41 0 7.82 0 0 Z " fill="#05658C" transform="translate(610,461)"/>
<path d="M0 0 C2 1.0625 2 1.0625 3 3 C3.5 6.4375 3.5 6.4375 3 10 C0.34934122 13.05227374 -1.60088237 13.89309349 -5.5 14.9375 C-9 15 -9 15 -11.9375 14 C-14 12 -14 12 -14.5625 8.5625 C-13.92895477 4.55004688 -13.17006893 3.42417035 -10 1 C-6.81014393 -0.59492803 -3.47067113 -0.37616681 0 0 Z " fill="#05658C" transform="translate(706,687)"/>
<path d="M0 0 C2.5 1.5625 2.5 1.5625 4 4 C4 7.5625 4 7.5625 3 11 C0.07804024 13.83044424 -2.04161933 14.41138806 -6.0625 14.375 C-6.91972656 14.38273438 -7.77695312 14.39046875 -8.66015625 14.3984375 C-11.45137028 13.92313895 -12.33969737 13.26163018 -14 11 C-14.4375 8.0625 -14.4375 8.0625 -14 5 C-10.11511749 0.04342577 -6.11613171 -0.53650278 0 0 Z M-7 6 C-6.67 6.99 -6.34 7.98 -6 9 C-5.01 8.67 -4.02 8.34 -3 8 C-3.33 7.34 -3.66 6.68 -4 6 C-4.99 6 -5.98 6 -7 6 Z " fill="#05658C" transform="translate(643,711)"/>
<path d="M0 0 C-0.25 2.375 -0.25 2.375 -1 5 C-1.6496875 5.2784375 -2.299375 5.556875 -2.96875 5.84375 C-5.23750528 6.84003038 -5.23750528 6.84003038 -5.828125 9.3828125 C-5.96734375 10.28773438 -6.1065625 11.19265625 -6.25 12.125 C-6.39953125 13.03507812 -6.5490625 13.94515625 -6.703125 14.8828125 C-6.80109375 15.58148438 -6.8990625 16.28015625 -7 17 C-9.97 17 -12.94 17 -16 17 C-16 11.39 -16 5.78 -16 0 C-5.42857143 -1.28571429 -5.42857143 -1.28571429 0 0 Z " fill="#05658C" transform="translate(701,467)"/>
<path d="M0 0 C2.97 0 5.94 0 9 0 C9 7.26 9 14.52 9 22 C6.03 22 3.06 22 0 22 C0 14.74 0 7.48 0 0 Z " fill="#05658C" transform="translate(822,426)"/>
<path d="M0 0 C2.97 0 5.94 0 9 0 C9 7.26 9 14.52 9 22 C6.03 22 3.06 22 0 22 C0 14.74 0 7.48 0 0 Z " fill="#05658C" transform="translate(676,426)"/>
<path d="M0 0 C2.97 0 5.94 0 9 0 C9 7.26 9 14.52 9 22 C6.03 22 3.06 22 0 22 C0 14.74 0 7.48 0 0 Z " fill="#05658C" transform="translate(447,426)"/>
<path d="M0 0 C2.97 0 5.94 0 9 0 C9 7.26 9 14.52 9 22 C6.03 22 3.06 22 0 22 C0 14.74 0 7.48 0 0 Z " fill="#05658C" transform="translate(370,426)"/>
<path d="M0 0 C4.95 0 9.9 0 15 0 C16 3 16 3 15.3125 5.125 C14 7 14 7 10 8 C9.67 10.97 9.34 13.94 9 17 C6.03 17 3.06 17 0 17 C0 11.39 0 5.78 0 0 Z " fill="#05658C" transform="translate(561,431)"/>
<path d="M0 0 C-0.75 2.9375 -0.75 2.9375 -2 6 C-3.32 6.33 -4.64 6.66 -6 7 C-6.33 10.3 -6.66 13.6 -7 17 C-9.97 17 -12.94 17 -16 17 C-16 11.39 -16 5.78 -16 0 C-10.3110884 -0.78769545 -5.63643263 -1.07931689 0 0 Z " fill="#05658C" transform="translate(480,467)"/>
<path d="M0 0 C4.95 0 9.9 0 15 0 C14.67 2.31 14.34 4.62 14 7 C12.68 7.33 11.36 7.66 10 8 C9.67 10.97 9.34 13.94 9 17 C6.03 17 3.06 17 0 17 C0 11.39 0 5.78 0 0 Z " fill="#05658C" transform="translate(431,431)"/>
<path d="M0 0 C-0.1875 2.375 -0.1875 2.375 -1 5 C-1.804375 5.226875 -2.60875 5.45375 -3.4375 5.6875 C-6.21496557 6.73164013 -6.21496557 6.73164013 -6.7734375 9.33984375 C-7.26684623 11.88912221 -7.68148171 14.42332964 -8 17 C-10.64 17 -13.28 17 -16 17 C-16 11.39 -16 5.78 -16 0 C-10.3110884 -0.78769545 -5.63643263 -1.07931689 0 0 Z " fill="#05658C" transform="translate(767,467)"/>
<path d="M0 0 C-0.25 2.375 -0.25 2.375 -1 5 C-1.6496875 5.2784375 -2.299375 5.556875 -2.96875 5.84375 C-5.23750528 6.84003038 -5.23750528 6.84003038 -5.828125 9.3828125 C-5.96734375 10.28773438 -6.1065625 11.19265625 -6.25 12.125 C-6.39953125 13.03507812 -6.5490625 13.94515625 -6.703125 14.8828125 C-6.80109375 15.58148438 -6.8990625 16.28015625 -7 17 C-9.64 17 -12.28 17 -15 17 C-15 11.39 -15 5.78 -15 0 C-9.67679061 -0.72589219 -5.29623639 -1.2222084 0 0 Z " fill="#05658C" transform="translate(562,467)"/>
<path d="M0 0 C1.65 0.33 3.3 0.66 5 1 C5 1.99 5 2.98 5 4 C5.66 4.33 6.32 4.66 7 5 C7 4.34 7 3.68 7 3 C8.65 3.33 10.3 3.66 12 4 C11.39122309 10.45303523 11.39122309 10.45303523 9.7734375 12.71484375 C7.39479262 14.43857539 5.84701637 14.33570004 2.9375 14.25 C2.05964844 14.23453125 1.18179688 14.2190625 0.27734375 14.203125 C-2 14 -2 14 -4 13 C-4.96070434 10.11788698 -5.10581883 8.30149956 -5.0625 5.3125 C-5.05347656 4.50425781 -5.04445313 3.69601562 -5.03515625 2.86328125 C-5.02355469 2.24839844 -5.01195312 1.63351562 -5 1 C-2.525 1.495 -2.525 1.495 0 2 C0 1.34 0 0.68 0 0 Z " fill="#05658C" transform="translate(897,476)"/>
<path d="M0 0 C0 2.97 0 5.94 0 9 C-1.65 9.33 -3.3 9.66 -5 10 C-5.33 11.98 -5.66 13.96 -6 16 C-9.37462715 15.45276317 -11.08235 14.9451 -14 13 C-14.39507893 8.65413172 -14.45331002 6.67996503 -12 3 C-11.5359375 1.948125 -11.5359375 1.948125 -11.0625 0.875 C-8.44011153 -3.75274435 -4.00059032 -1.33353011 0 0 Z " fill="#05658C" transform="translate(248,628)"/>
<path d="M0 0 C2.64 0 5.28 0 8 0 C8 7.26 8 14.52 8 22 C5.36 22 2.72 22 0 22 C0 14.74 0 7.48 0 0 Z " fill="#05658C" transform="translate(753,426)"/>
<path d="M0 0 C2.64 0 5.28 0 8 0 C8 7.26 8 14.52 8 22 C5.36 22 2.72 22 0 22 C0 14.74 0 7.48 0 0 Z " fill="#05658C" transform="translate(602,426)"/>
<path d="M0 0 C0.66 0.66 1.32 1.32 2 2 C2.99 2 3.98 2 5 2 C6 6.75 6 6.75 6 9 C7.32 9.33 8.64 9.66 10 10 C9.6875 12.375 9.6875 12.375 9 15 C5.5647952 17.29013653 4.014669 17.17842973 0 17 C-0.2475 16.195625 -0.495 15.39125 -0.75 14.5625 C-1.72238859 11.828919 -1.72238859 11.828919 -4.125 11.1875 C-4.74375 11.125625 -5.3625 11.06375 -6 11 C-6.36476427 4.67741935 -6.36476427 4.67741935 -4.6875 1.5625 C-3 0 -3 0 0 0 Z " fill="#05658C" transform="translate(730,667)"/>
<path d="M0 0 C-0.55145271 5.23880078 -1.42922093 9.97350697 -3 15 C-5.31 15.33 -7.62 15.66 -10 16 C-11.17520646 14.40207898 -12.33991247 12.79643092 -13.5 11.1875 C-14.1496875 10.29417969 -14.799375 9.40085937 -15.46875 8.48046875 C-17 6 -17 6 -17 3 C-13.625 2.375 -13.625 2.375 -10 2 C-9.34 2.66 -8.68 3.32 -8 4 C-7.67 3.01 -7.34 2.02 -7 1 C-2.25 0 -2.25 0 0 0 Z " fill="#05658C" transform="translate(604,720)"/>
<path d="M0 0 C1.32 0 2.64 0 4 0 C5.88671875 2.01171875 5.88671875 2.01171875 7.6875 4.6875 C8.28949219 5.55761719 8.89148438 6.42773438 9.51171875 7.32421875 C10.97760897 9.95974316 11.59881902 12.03126075 12 15 C9 17 9 17 6.5546875 16.92578125 C3.19152142 15.70701923 2.12627092 14.12069322 0.125 11.1875 C-0.49117187 10.31480469 -1.10734375 9.44210937 -1.7421875 8.54296875 C-3 6 -3 6 -2.8203125 3.80078125 C-2 2 -2 2 0 0 Z " fill="#05658C" transform="translate(753,650)"/>
<path d="M0 0 C1.4540625 0.0309375 1.4540625 0.0309375 2.9375 0.0625 C6.38169134 11.58414009 6.38169134 11.58414009 5.9375 17.0625 C3.6275 17.3925 1.3175 17.7225 -1.0625 18.0625 C-4.60466867 6.21310241 -4.60466867 6.21310241 -4.0625 1.0625 C-3.0625 0.0625 -3.0625 0.0625 0 0 Z " fill="#05658C" transform="translate(609.0625,714.9375)"/>
<path d="M0 0 C-0.33 1.65 -0.66 3.3 -1 5 C-1.99 5.33 -2.98 5.66 -4 6 C-3.67 8.64 -3.34 11.28 -3 14 C-5.31 14.33 -7.62 14.66 -10 15 C-11.45184478 10.46298506 -12.23509196 6.81938524 -12 2 C-7.82262526 0.40861915 -4.46839215 -0.21278058 0 0 Z " fill="#05658C" transform="translate(628,715)"/>
</svg>
